<svg width="25" height="26" viewBox="0 0 25 26" fill="none" xmlns="http://www.w3.org/2000/svg">
<g id="night / detailedshield_c_02_toll">
<g id="detailedshield_c_02_toll">
<g id="detailedshield_c_base">
<g id="stretchable-items">
<path id="shape01" d="M6.51237 1.76354C6.54876 1.71399 6.58289 1.66921 6.61439 1.62908C7.40874 2.03699 8.29205 2.35 9.5 2.35C10.2274 2.35 11.0446 2.11236 11.6474 1.89548C11.9557 1.78454 12.222 1.67381 12.4114 1.59069C12.4431 1.57679 12.4727 1.56364 12.5 1.55137C12.5273 1.56364 12.5569 1.57679 12.5886 1.59069C12.778 1.67381 13.0443 1.78454 13.3526 1.89548C13.9554 2.11236 14.7726 2.35 15.5 2.35C16.7079 2.35 17.5913 2.03699 18.3856 1.62908C18.4171 1.66921 18.4512 1.71399 18.4876 1.76354C18.7029 2.05671 18.9978 2.51725 19.2954 3.16745C19.8896 4.46593 20.5 6.53225 20.5 9.55C20.5 12.519 19.5426 14.6911 18.0711 16.2754C16.6207 17.837 14.6411 18.8586 12.5 19.48C10.3589 18.8586 8.37928 17.837 6.92886 16.2754C5.45737 14.6911 4.5 12.519 4.5 9.55C4.5 6.53225 5.11038 4.46593 5.70465 3.16745C6.00222 2.51725 6.29707 2.05671 6.51237 1.76354Z" fill="#295EA3" stroke="#B0B5BF"/>
<path id="shape02" d="M18.9265 2.39807C19.314 3.05865 19.7702 4.06789 20.0816 5.5H4.91822C5.22957 4.06789 5.68576 3.05864 6.07329 2.39806C6.28233 2.04173 6.47216 1.78557 6.60989 1.61831C7.39374 2.00749 8.29275 2.35 9.49988 2.35C10.2221 2.35 11.0395 2.11222 11.6429 1.8956C11.9518 1.78473 12.2189 1.67408 12.409 1.59103C12.4416 1.57681 12.4719 1.56339 12.4999 1.55088C12.5279 1.56339 12.5582 1.57681 12.5908 1.59102C12.7809 1.67407 13.048 1.78473 13.3568 1.8956C13.9603 2.11222 14.7777 2.35 15.4999 2.35C16.707 2.35 17.606 2.00749 18.3899 1.61831C18.5276 1.78556 18.7174 2.04173 18.9265 2.39807Z" fill="#A83939" stroke="#B0B5BF"/>
</g>
</g>
<g id="non-stretchable-items">
<g id="roadtype_toll">
<rect id="background" x="1.5" y="15.5" width="22" height="9" fill="#A6A563" stroke="#4E545C"/>
<path id="TOLL" d="M7.79597 18.384H6.39597V23H5.21997V18.384H3.74797V17.464H7.92397L7.79597 18.384ZM10.4282 17.336C10.9348 17.336 11.3722 17.4507 11.7402 17.68C12.1082 17.904 12.3908 18.232 12.5882 18.664C12.7855 19.096 12.8842 19.6187 12.8842 20.232C12.8842 20.8347 12.7855 21.3547 12.5882 21.792C12.3908 22.224 12.1082 22.5547 11.7402 22.784C11.3722 23.0133 10.9348 23.128 10.4282 23.128C9.92149 23.128 9.48149 23.016 9.10816 22.792C8.74016 22.5627 8.45749 22.232 8.26016 21.8C8.06282 21.3627 7.96416 20.84 7.96416 20.232C7.96416 19.6347 8.06282 19.12 8.26016 18.688C8.46282 18.2507 8.74816 17.9173 9.11616 17.688C9.48949 17.4533 9.92682 17.336 10.4282 17.336ZM10.4282 18.216C10.0228 18.216 9.71616 18.376 9.50816 18.696C9.30549 19.016 9.20416 19.528 9.20416 20.232C9.20416 20.936 9.30816 21.448 9.51616 21.768C9.72416 22.088 10.0282 22.248 10.4282 22.248C10.8335 22.248 11.1375 22.0907 11.3402 21.776C11.5428 21.456 11.6442 20.9413 11.6442 20.232C11.6442 19.5227 11.5428 19.0107 11.3402 18.696C11.1375 18.376 10.8335 18.216 10.4282 18.216ZM14.9514 22.056H17.1434L17.0154 23H13.7754V17.464H14.9514V22.056ZM19.0217 22.056H21.2137L21.0857 23H17.8457V17.464H19.0217V22.056Z" fill="#4E545C"/>
</g>
</g>
</g>
</g>
</svg>
