<svg width="17" height="16" viewBox="0 0 17 16" fill="none" xmlns="http://www.w3.org/2000/svg">
<g id="night / simpleshield_b_01">
<g id="simpleshield_b_base">
<g id="stretchable-items">
<path id="shape01" d="M1.50001 1.82812L1.5 1.5H15.4999V1.50046V1.51021V1.52005V1.52997V1.53998V1.55006V1.56023V1.57048V1.58081V1.59123V1.60172V1.6123V1.62295V1.63369V1.6445V1.6554V1.66637V1.67742V1.68855V1.69976V1.71105V1.72241V1.73385V1.74537V1.75697V1.76864V1.78038V1.79221V1.8041V1.81608V1.82812V1.84025V1.85244V1.86471V1.87706V1.88947V1.90196V1.91452V1.92716V1.93986V1.95264V1.96549V1.97841V1.9914V2.00446V2.01759V2.03079V2.04406V2.0574V2.07081V2.08428V2.09783V2.11144V2.12512V2.13887V2.15268V2.16656V2.18051V2.19452V2.2086V2.22274V2.23695V2.25122V2.26556V2.27996V2.29442V2.30895V2.32354V2.3382V2.35292V2.36769V2.38254V2.39744V2.4124V2.42743V2.44251V2.45766V2.47286V2.48813V2.50345V2.51884V2.53428V2.54978V2.56534V2.58096V2.59663V2.61236V2.62815V2.644V2.6599V2.67585V2.69187V2.70793V2.72406V2.74023V2.75647V2.77275V2.78909V2.80549V2.82193V2.83843V2.85498V2.87159V2.88824V2.90495V2.92171V2.93852V2.95538V2.97229V2.98925V3.00626V3.02332V3.04042V3.05758V3.07479V3.09204V3.10934V3.12669V3.14408V3.16153V3.17902V3.19655V3.21413V3.23176V3.24943V3.26715V3.28491V3.30272V3.32057V3.33846V3.3564V3.37438V3.3924V3.41047V3.42858V3.44673V3.46492V3.48315V3.50142V3.51974V3.53809V3.55649V3.57492V3.59339V3.61191V3.63046V3.64905V3.66767V3.68634V3.70504V3.72378V3.74256V3.76137V3.78022V3.79911V3.81803V3.83698V3.85597V3.875V3.89406V3.91315V3.93228V3.95144V3.97064V3.98986V4.00912V4.02842V4.04774V4.06709V4.08648V4.1059V4.12534V4.14482V4.16433V4.18387V4.20344V4.22303V4.24266V4.26231V4.28199V4.3017V4.32143V4.3412V4.36099V4.3808V4.40065V4.42052V4.44041V4.46033V4.48027V4.50024V4.52024V4.54026V4.5603V4.58036V4.60045V4.62056V4.64069V4.66085V4.68102V4.70122V4.72144V4.74168V4.76194V4.78222V4.80252V4.82285V4.84319V4.86354V4.88392V4.90432V4.92473V4.94516V4.96561V4.98608V5.00656V5.02706V5.04758V5.06811V5.08866V5.10922V5.1298V5.15039V5.171V5.19162V5.21225V5.2329V5.25356V5.27423V5.29492V5.31562V5.33633V5.35705V5.37778V5.39852V5.41928V5.44004V5.46081V5.4816V5.50239V5.52319V5.544V5.56482V5.58565V5.60648V5.62733V5.64817V5.66903V5.68989V5.71076V5.73164V5.75252V5.7734V5.79429V5.81519V5.83608V5.85699V5.87789V5.8988V5.91972V5.94063V5.96155V5.98247V6.00339V6.02432V6.04524V6.06617V6.08709V6.10802V6.12895V6.14987V6.1708V6.19172V6.21264V6.23356V6.25448V6.2754V6.29632V6.31723V6.33813V6.35904V6.37994V6.40084V6.42173V6.44262V6.4635V6.48438V6.50525V6.52611V6.54697V6.56782V6.58867V6.6095V6.63033V6.65116V6.67197V6.69278V6.71357V6.73436V6.75514V6.77591V6.79667V6.81741V6.83815V6.85888V6.87959V6.90029V6.92098V6.94166V6.96233V6.98298V7.00362V7.02425V7.04486V7.06546V7.08604V7.10661V7.12717V7.14771V7.16823V7.18873V7.20923V7.2297V7.25016V7.27059V7.29102V7.31142V7.33181V7.35217V7.37252V7.39285V7.41316V7.43345V7.45372V7.47397V7.4942V7.5144V7.53459V7.55475V7.5749V7.59502V7.61511V7.63519V7.65524V7.67527V7.69527V7.71525V7.73521V7.75514V7.77504V7.79492V7.81478V7.8346V7.85441V7.87418V7.89393V7.91365V7.93334V7.95301V7.97264V7.99225V8.01183V8.03138V8.0509V8.07039V8.08985V8.10928V8.12868V8.14805V8.16739V8.18669V8.20597V8.22521V8.24442V8.26359V8.28273V8.30184V8.32092V8.33996V8.35896V8.37793V8.39687V8.41577V8.43464V8.45346V8.47226V8.49101V8.50973V8.52841V8.54706V8.56566V8.58423V8.60276V8.62125V8.6397V8.65811V8.67648V8.69481V8.7131V8.73135V8.74956V8.76773V8.78586V8.80394V8.82198V8.83998V8.85794V8.87585V8.89372V8.91154V8.92932V8.93704C15.0285 10.7362 13.6583 12.125 12.1679 13.0789C11.4197 13.5577 10.6567 13.9165 9.99483 14.1545C9.32116 14.3967 8.79059 14.5 8.49995 14.5C8.20931 14.5 7.67873 14.3967 7.00506 14.1545C6.34315 13.9165 5.58017 13.5577 4.83198 13.0789C3.34159 12.125 1.97144 10.7362 1.5 8.93705L1.50002 3.875L1.50001 1.82812Z" fill="#295EA3" stroke="#B0B5BF"/>
</g>
</g>
</g>
</svg>
