<svg width="19" height="15" viewBox="0 0 19 15" fill="none" xmlns="http://www.w3.org/2000/svg">
<g id="night / simpleshield_a_01">
<g id="simpleshield_a_base ">
<g id="stretchable-items">
<path id="shape01" d="M1.5 1.5L17.4979 1.50011V8.26819C17.4831 9.50305 17.4287 10.1799 17.1328 10.6766C16.8537 11.1452 16.2976 11.5409 14.9788 11.9819C14.1358 12.2206 12.7468 12.6032 11.5648 12.9271C10.9715 13.0897 10.431 13.2373 10.0387 13.3443L9.57362 13.4711L9.53392 13.4819L9.49578 13.4715L9.03489 13.346C8.64623 13.2401 8.11059 13.0939 7.52267 12.933C6.34852 12.6115 4.96821 12.2316 4.13309 11.9953C2.76655 11.5768 2.18933 11.1781 1.89669 10.6893C1.58455 10.1679 1.52388 9.44393 1.50001 8.13718L1.5 3.82615L1.5 1.83662L1.5 1.5Z" fill="#295EA3" stroke="#B0B5BF"/>
</g>
</g>
</g>
</svg>
