<svg width="19" height="23" viewBox="0 0 19 23" fill="none" xmlns="http://www.w3.org/2000/svg">
<g id="night / u_a_emirates_d_01">
<g id="ua_emirates_d_base">
<g id="stretchable-items">
<rect id="shape" x="1" y="1" width="17" height="21" rx="1" fill="#B0B5BF"/>
<rect id="Rectangle 120" x="2" y="2" width="15" height="19" fill="#277567"/>
<rect id="Rectangle 123" x="3.2666" y="3" width="12.4667" height="8" fill="#B0B5BF"/>
</g>
<g id="non-stretchable-items">
<g id="shape_2">
<path fill-rule="evenodd" clip-rule="evenodd" d="M10.5806 6.86702C10.5806 5.37629 9.76911 3.86902 8.67293 3C8.76131 3.68325 8.63878 5.49867 7.79028 6.9894C6.94178 8.48013 5.79547 9.50309 5 10V10.5261H5.68634C5.80934 10.5261 5.97688 10.582 6.15793 10.6425L6.18374 10.6511C6.38193 10.7172 6.61228 10.7929 6.86789 10.8386C7.10925 10.8816 7.45754 10.8099 7.81514 10.7195C7.87666 10.7039 7.93865 10.6878 8.00027 10.6717C8.28324 10.5979 8.55834 10.5261 8.74412 10.5261C8.93871 10.5261 9.07329 10.5638 9.20405 10.6004L9.26747 10.618C9.41639 10.6581 9.58723 10.694 9.88445 10.6759C10.4068 10.6441 10.7556 10.4937 10.9329 10.4173C10.9591 10.406 10.9816 10.3963 11.0003 10.3889C11.1063 10.3467 11.1912 10.4483 11.2332 10.5035C11.2557 10.5332 11.2786 10.5674 11.298 10.5965L11.302 10.6025C11.3238 10.635 11.3436 10.6644 11.3644 10.692C11.4402 10.7927 11.5204 10.8615 11.6505 10.7916C11.9478 10.6319 12.143 10.6148 12.5407 10.5799C12.6863 10.5672 12.859 10.552 13.0737 10.5267C13.4115 10.4868 13.6741 10.4447 13.8709 10.4125L14 10.3914V10H9.39897C9.82606 9.46152 10.5806 8.35775 10.5806 6.86702ZM9.39897 10H5C6.0057 9.89829 6.63512 9.79226 7.15333 9.70497C7.50803 9.64522 7.81068 9.59423 8.14619 9.55942C8.97189 9.47376 9.31059 9.87577 9.39897 10Z" fill="#277567"/>
<path d="M12.7017 7.17374C12.2236 5.99769 11.449 5.20338 10.3538 4.64551C10.6686 5.17102 11.1136 6.38926 11.0386 7.53249C10.9552 8.80304 10.7773 9.17385 10.4567 9.84184L10.4216 9.91509C10.7892 9.94748 10.9894 9.88518 11.1984 9.82013C11.3867 9.76154 11.5822 9.70071 11.9136 9.7048C12.2644 9.70914 12.5374 9.77157 12.89 9.91509C13.0077 9.15391 13.126 8.21724 12.7017 7.17374Z" fill="#277567"/>
</g>
</g>
</g>
</g>
</svg>
