<svg width="19" height="18" viewBox="0 0 19 18" fill="none" xmlns="http://www.w3.org/2000/svg">
<g id="night / usa_a_AK_01">
<g id="usa_a_base">
<g id="stretchable-items">
<rect id="shape01" x="1.5" y="1.5" width="16" height="15" fill="#B0B5BF" stroke="#4E545C"/>
</g>
<g id="non-stretchable-items">
<g id="AK">
<path id="shape01_2" d="M13.4375 4.03534L12.8968 2.42578L12.3561 4.03534H10.6064L12.022 5.0301L11.4813 6.63965L12.8968 5.64489L14.3124 6.63965L13.7717 5.0301L15.1872 4.03534H13.4375Z" fill="#4E545C"/>
<g id="shape02">
<path d="M5.99275 5.67914H4.90775L4.71275 6.45414H3.94775L5.01275 2.99414H5.90775L6.96775 6.45414H6.18775L5.99275 5.67914ZM5.85275 5.13414L5.44775 3.53914L5.04775 5.13414H5.85275Z" fill="#4E545C"/>
<path d="M8.02244 6.45414H7.28744V2.99414H8.02244V6.45414ZM8.83244 4.55414L10.0774 6.45414H9.21744L8.05244 4.60914L9.20244 2.99414H9.98744L8.83244 4.55414Z" fill="#4E545C"/>
</g>
</g>
</g>
</g>
</g>
</svg>
