<svg width="21" height="20" viewBox="0 0 21 20" fill="none" xmlns="http://www.w3.org/2000/svg">
<g id="night / usa_WA_01">
<g id="usa_WA_base">
<g id="stretchable-items">
<path id="shape01" d="M18.8132 9.09774L18.8147 9.09955L16.8872 14.4318C16.827 14.5695 16.8256 14.7028 16.8339 14.7928C16.8429 14.8891 16.8671 14.9779 16.8928 15.0503C16.9423 15.1898 17.02 15.3321 17.1053 15.4359L17.3995 15.7934L17.7785 15.5275L18.3499 15.1267L18.614 15.5707C18.5521 15.7465 18.4978 15.9276 18.4476 16.0946C18.4207 16.1841 18.395 16.2696 18.3701 16.348C18.2685 16.6674 18.165 16.9254 18.015 17.1314L17.8574 17.3477L17.9501 17.5988L18.2826 18.5H4.56017C4.61794 18.2312 4.71587 17.9912 4.85355 17.8536C5.10138 17.6057 5.40697 17.2913 5.61914 16.9317C5.83772 16.5612 5.98394 16.0969 5.8403 15.5764L5.81729 15.493L5.7676 15.4222C5.57289 15.1447 5.29702 14.9805 5.03281 14.8753C4.77044 14.7708 4.48173 14.71 4.22065 14.6633C4.11451 14.6444 4.01599 14.6281 3.9217 14.6126C3.76516 14.5868 3.62031 14.5629 3.47173 14.5317C3.24119 14.4832 3.07312 14.4296 2.95649 14.3643C2.85443 14.3071 2.76754 14.2055 2.70075 14.0197C2.63145 13.827 2.59589 13.5746 2.58632 13.2721C2.57684 12.9722 2.5933 12.6553 2.61141 12.3376C2.61251 12.3183 2.61362 12.2988 2.61474 12.2793C2.63123 11.9922 2.64841 11.693 2.63777 11.4434L2.62018 11.0307L2.2115 10.9701C1.95499 10.9321 1.76317 10.8838 1.62382 10.7981C1.58973 10.7771 1.55408 10.7484 1.53 10.7165C1.51031 10.6905 1.5 10.6657 1.5 10.6294C1.5 10.2632 1.66581 9.95522 1.94481 9.56904C1.98902 9.50784 2.03774 9.44296 2.08908 9.37458C2.33225 9.05075 2.63412 8.64874 2.79329 8.1903C2.91768 7.83202 2.90678 7.45961 2.89875 7.18539C2.89818 7.16603 2.89763 7.14715 2.89714 7.1288C2.8888 6.81669 2.89304 6.60488 2.96762 6.41361C3.14682 5.954 3.37188 5.40232 3.66211 4.91272C3.95824 4.41319 4.28369 4.04573 4.63119 3.8787C4.80398 3.79564 4.95174 3.69194 5.06658 3.55439C5.1837 3.4141 5.24127 3.26877 5.27529 3.14476C5.29406 3.07633 5.3131 2.97757 5.32551 2.91321C5.32991 2.89041 5.33347 2.87192 5.33589 2.86064C5.35107 2.78999 5.36818 2.7315 5.39705 2.67115C5.45065 2.55909 5.63241 2.3882 6.03773 2.2079C6.4201 2.0378 6.91245 1.8981 7.44074 1.78889C8.49889 1.57016 9.60975 1.49187 10.0667 1.50064L10.067 1.50065C11.2074 1.52194 12.2927 1.56085 13.3293 1.84339C14.4402 2.14617 15.5122 2.7298 16.2412 3.86958C16.9183 4.92822 17.2608 5.4878 17.449 5.87825C17.6214 6.23579 17.6844 6.61173 17.7642 7.08777C17.7675 7.10735 17.7708 7.12709 17.7741 7.14701C17.9213 8.023 18.4133 8.61584 18.8132 9.09774Z" fill="#B0B5BF" stroke="#4E545C"/>
</g>
</g>
</g>
</svg>
