<svg width="22" height="20" viewBox="0 0 22 20" fill="none" xmlns="http://www.w3.org/2000/svg">
<g id="night / usa_NE_01">
<g id="usa_NE_base">
<g id="stretchable-items">
<path id="shape01" d="M20.4304 1.5L18.2244 18.3758C18.1993 18.3698 18.1733 18.3636 18.1467 18.3573C17.7436 18.2617 17.1646 18.1347 16.4557 18.0078C15.0396 17.7544 13.0971 17.5 11 17.5C8.90294 17.5 6.96036 17.7544 5.54428 18.0078C4.83539 18.1347 4.25636 18.2617 3.85335 18.3573C3.82666 18.3636 3.80074 18.3698 3.7756 18.3758L1.56961 1.5H20.4304Z" fill="#B0B5BF" stroke="#4E545C"/>
</g>
<g id="non-stretchable-items">
<path id="shape01_2" fill-rule="evenodd" clip-rule="evenodd" d="M7.29406 17.4179L7.54864 16.6518L7.49512 16.3599L6.56621 15.6626L6.69936 15.2598L6.53053 15.0464L6.5127 14.6409L6.83422 14.9976L7.85233 14.7057L8.01309 14.1219L8.24521 14.43H8.90611L9.03119 13.9436L9.42471 14.7379L9.7095 14.7826C9.4806 14.2258 9.27876 13.7231 9.33833 13.0705C9.39789 12.418 10.0027 11.7337 10.9939 11.6398C11.9852 11.5459 12.8388 12.2047 12.9223 13.0705C12.9788 13.6567 12.6778 14.43 12.3896 14.8029C12.3628 14.9678 12.3896 15.2139 12.6072 15.3101C12.8983 15.1157 13.1886 14.8065 13.3823 14.4756C13.61 14.0865 13.6352 13.4044 13.5817 13.143C14.1362 14.0967 13.605 14.9678 13.0354 15.44C13.1687 15.48 13.3636 15.542 13.5815 15.6136C13.9543 15.4776 14.1941 15.2459 14.3853 14.8761C14.5931 14.4746 14.5087 14.0469 14.4448 13.7373C14.5481 13.8655 14.7199 14.4051 14.6792 14.8029C14.6466 15.1216 14.48 15.4795 14.1259 15.7984C14.2174 15.8306 14.3053 15.8621 14.3891 15.8929C14.642 15.8087 14.9876 15.4943 15.0819 15.2834C15.1822 15.0584 15.1354 14.426 15.1354 14.426L15.4867 14.7663C15.4867 14.7663 15.5058 15.27 15.4227 15.5763C15.3245 15.9379 14.9748 16.4248 14.9748 16.4248L14.8467 17.6678L7.29406 17.4179ZM8.08105 15.4686L8.40363 16.2536L8.70804 17.1166L9.70112 16.9841L9.40494 16.3917L8.70804 16.1652L8.08105 15.4686ZM10.3806 15.6325L9.61401 15.4688L9.17845 15.8339H9.61401L10.3806 16.9841L10.7505 16.7681L10.6748 16.0413L10.3806 15.6325ZM11.0883 14.5835C11.5985 14.5835 12.012 14.1357 12.012 13.5832C12.012 13.0307 11.5985 12.5829 11.0883 12.5829C10.5781 12.5829 10.1646 13.0307 10.1646 13.5832C10.1646 14.1357 10.5781 14.5835 11.0883 14.5835ZM13.0946 16.5177C13.0947 16.2306 12.8537 15.9981 12.6309 15.9558C12.3202 15.8968 12.1444 16.0192 12.0753 16.2994C12.0009 16.6009 12.2745 16.9014 12.6306 16.9784C12.9393 17.0452 13.0946 16.8048 13.0946 16.5177ZM14.065 16.3299C14.2442 16.3639 14.438 16.5509 14.4379 16.7817C14.4379 17.0125 14.313 17.2059 14.0648 17.1522C13.7785 17.0903 13.5584 16.8486 13.6183 16.6062C13.6738 16.3809 13.8152 16.2825 14.065 16.3299Z" fill="#4E545C"/>
</g>
</g>
</g>
</svg>
