<svg width="18" height="15" viewBox="0 0 18 15" fill="none" xmlns="http://www.w3.org/2000/svg">
<g id="day / detailedshield_e_01">
<g id="detailedshield_e_base">
<g id="stretchable-items">
<path id="shape01" d="M1.5 8.5V1.5H16.5V8.5C16.5 9.93876 16.2119 10.8734 15.8034 11.4757C15.4021 12.0673 14.8522 12.3863 14.2186 12.5357C13.547 12.694 13.0761 12.6938 12.5917 12.6538C12.4605 12.643 12.3218 12.6282 12.174 12.6125C11.7815 12.5708 11.3254 12.5223 10.7778 12.5223C10.4934 12.5223 10.2159 12.6151 9.98553 12.7203C9.74883 12.8283 9.52284 12.9678 9.33182 13.0999C9.20853 13.1851 9.09597 13.2699 9 13.3457C8.90403 13.2699 8.79147 13.1851 8.66818 13.0999C8.47716 12.9678 8.25117 12.8283 8.01448 12.7203C7.78413 12.6151 7.50656 12.5223 7.22222 12.5223C6.66392 12.5223 6.19028 12.5915 5.79403 12.6494C5.64833 12.6707 5.5131 12.6904 5.38797 12.7047C4.91679 12.7582 4.46656 12.7587 3.82267 12.5473C3.16095 12.33 2.6017 12.0004 2.19812 11.4212C1.79048 10.8361 1.5 9.93646 1.5 8.5Z" fill="white" stroke="#888B8F"/>
</g>
</g>
</g>
</svg>
