<svg width="19" height="26" viewBox="0 0 19 26" fill="none" xmlns="http://www.w3.org/2000/svg">
<g id="day / detailedshield_c_01_business-loop">
<g id="detailedshield_c_01_business-loop">
<g id="detailedshield_c_base">
<g id="stretchable-items">
<path id="shape01" d="M3.51237 1.76354C3.54876 1.71399 3.58289 1.66921 3.61439 1.62908C4.40874 2.03699 5.29205 2.35 6.5 2.35C7.2274 2.35 8.04457 2.11236 8.6474 1.89548C8.95573 1.78454 9.22196 1.67381 9.41142 1.59069C9.4431 1.57679 9.47267 1.56364 9.5 1.55137C9.52732 1.56364 9.5569 1.57679 9.58858 1.59069C9.77804 1.67381 10.0443 1.78454 10.3526 1.89548C10.9554 2.11236 11.7726 2.35 12.5 2.35C13.7079 2.35 14.5913 2.03699 15.3856 1.62908C15.4171 1.66921 15.4512 1.71399 15.4876 1.76354C15.7029 2.05671 15.9978 2.51725 16.2954 3.16745C16.8896 4.46593 17.5 6.53225 17.5 9.55C17.5 12.519 16.5426 14.6911 15.0711 16.2754C13.6207 17.837 11.6411 18.8586 9.5 19.48C7.35893 18.8586 5.37928 17.837 3.92886 16.2754C2.45737 14.6911 1.5 12.519 1.5 9.55C1.5 6.53225 2.11038 4.46593 2.70465 3.16745C3.00222 2.51725 3.29707 2.05671 3.51237 1.76354Z" fill="#53C2AE" stroke="white"/>
<path id="shape02" d="M15.927 2.39807C16.3145 3.05865 16.7707 4.06789 17.0821 5.5H1.91871C2.23006 4.06789 2.68625 3.05864 3.07378 2.39806C3.28282 2.04173 3.47264 1.78557 3.61038 1.61831C4.39423 2.00749 5.29324 2.35 6.50037 2.35C7.22258 2.35 8.03995 2.11222 8.64342 1.8956C8.95226 1.78473 9.21935 1.67408 9.40953 1.59103C9.44208 1.57681 9.47242 1.56339 9.50039 1.55088C9.52836 1.56339 9.5587 1.57681 9.59125 1.59102C9.78142 1.67407 10.0485 1.78473 10.3573 1.8956C10.9608 2.11222 11.7781 2.35 12.5004 2.35C13.7075 2.35 14.6065 2.00749 15.3904 1.61831C15.5281 1.78556 15.7179 2.04173 15.927 2.39807Z" fill="#53C2AE" stroke="white"/>
</g>
</g>
<g id="non-stretchable-items">
<g id="roadtype_business-loop">
<rect id="background" x="2.5" y="15.5" width="14" height="9" fill="#53C2AE" stroke="white"/>
<path id="BL" d="M8.41991 20.072C8.79324 20.1413 9.09457 20.2773 9.32391 20.48C9.55857 20.6773 9.67591 20.9813 9.67591 21.392C9.67591 21.9733 9.46791 22.3867 9.05191 22.632C8.63591 22.8773 8.05724 23 7.31591 23H5.58791V17.464H7.09991C7.85724 17.464 8.43591 17.576 8.83591 17.8C9.23591 18.024 9.43591 18.384 9.43591 18.88C9.43591 19.2053 9.33724 19.4693 9.13991 19.672C8.94791 19.8693 8.70791 20.0027 8.41991 20.072ZM6.76391 18.312V19.712H7.33991C7.62791 19.712 7.84924 19.6533 8.00391 19.536C8.15857 19.4133 8.23591 19.2293 8.23591 18.984C8.23591 18.7387 8.15324 18.5653 7.98791 18.464C7.82257 18.3627 7.56391 18.312 7.21191 18.312H6.76391ZM7.32391 22.128C7.69191 22.128 7.97191 22.0747 8.16391 21.968C8.35591 21.856 8.45191 21.648 8.45191 21.344C8.45191 20.7893 8.11057 20.512 7.42791 20.512H6.76391V22.128H7.32391ZM11.6858 22.056H13.8778L13.7498 23H10.5098V17.464H11.6858V22.056Z" fill="white"/>
</g>
</g>
</g>
</g>
</svg>
