<svg width="28" height="26" viewBox="0 0 28 26" fill="none" xmlns="http://www.w3.org/2000/svg">
<g id="day / detailedshield_c_02_spur">
<g id="detailedshield_c_02_spur">
<g id="detailedshield_c_base">
<g id="stretchable-items">
<path id="shape01" d="M7.79362 1.76354C7.83001 1.71399 7.86414 1.66921 7.89564 1.62908C8.68999 2.03699 9.5733 2.35 10.7812 2.35C11.5086 2.35 12.3258 2.11236 12.9286 1.89548C13.237 1.78454 13.5032 1.67381 13.6927 1.59069C13.7243 1.57679 13.7539 1.56364 13.7812 1.55137C13.8086 1.56364 13.8382 1.57679 13.8698 1.59069C14.0593 1.67381 14.3255 1.78454 14.6339 1.89548C15.2367 2.11236 16.0539 2.35 16.7812 2.35C17.9892 2.35 18.8725 2.03699 19.6669 1.62908C19.6984 1.66921 19.7325 1.71399 19.7689 1.76354C19.9842 2.05671 20.279 2.51725 20.5766 3.16745C21.1709 4.46593 21.7812 6.53225 21.7812 9.55C21.7812 12.519 20.8239 14.6911 19.3524 16.2754C17.902 17.837 15.9223 18.8586 13.7813 19.48C11.6402 18.8586 9.66053 17.837 8.21011 16.2754C6.73862 14.6911 5.78125 12.519 5.78125 9.55C5.78125 6.53225 6.39163 4.46593 6.9859 3.16745C7.28347 2.51725 7.57832 2.05671 7.79362 1.76354Z" fill="#5397F0" stroke="white"/>
<path id="shape02" d="M20.2082 2.39807C20.5958 3.05865 21.052 4.06789 21.3633 5.5H6.19996C6.51131 4.06789 6.9675 3.05864 7.35503 2.39806C7.56407 2.04173 7.75389 1.78557 7.89163 1.61831C8.67548 2.00749 9.57449 2.35 10.7816 2.35C11.5038 2.35 12.3212 2.11222 12.9247 1.8956C13.2335 1.78473 13.5006 1.67408 13.6908 1.59103C13.7233 1.57681 13.7537 1.56339 13.7816 1.55088C13.8096 1.56339 13.84 1.57681 13.8725 1.59102C14.0627 1.67407 14.3298 1.78473 14.6386 1.8956C15.242 2.11222 16.0594 2.35 16.7816 2.35C17.9887 2.35 18.8878 2.00749 19.6716 1.61831C19.8094 1.78556 19.9992 2.04173 20.2082 2.39807Z" fill="#F56C6C" stroke="white"/>
</g>
</g>
<g id="non-stretchable-items">
<g id="roadtype_spur">
<rect id="background" x="1.78125" y="15.5" width="24" height="9" fill="#5397F0" stroke="white"/>
<path id="SPUR" d="M6.32278 17.336C6.72278 17.336 7.06945 17.3947 7.36278 17.512C7.66145 17.624 7.93611 17.7973 8.18678 18.032L7.62678 18.68C7.42945 18.52 7.23211 18.4027 7.03478 18.328C6.83745 18.2533 6.62678 18.216 6.40278 18.216C6.15745 18.216 5.96011 18.2693 5.81078 18.376C5.66678 18.4773 5.59478 18.624 5.59478 18.816C5.59478 18.9493 5.62411 19.0587 5.68278 19.144C5.74678 19.2293 5.85611 19.3093 6.01078 19.384C6.16545 19.4587 6.39745 19.544 6.70678 19.64C7.25611 19.816 7.66678 20.0347 7.93878 20.296C8.21078 20.552 8.34678 20.92 8.34678 21.4C8.34678 21.7413 8.26145 22.0427 8.09078 22.304C7.92011 22.56 7.67211 22.7627 7.34678 22.912C7.02145 23.056 6.64011 23.128 6.20278 23.128C5.76545 23.128 5.37611 23.0587 5.03478 22.92C4.69345 22.7813 4.40011 22.592 4.15478 22.352L4.75478 21.688C4.96811 21.8693 5.18945 22.008 5.41878 22.104C5.64811 22.1947 5.89878 22.24 6.17078 22.24C6.45878 22.24 6.68811 22.1733 6.85878 22.04C7.03478 21.9067 7.12278 21.72 7.12278 21.48C7.12278 21.3307 7.09078 21.208 7.02678 21.112C6.96811 21.0107 6.86411 20.92 6.71478 20.84C6.56545 20.76 6.34945 20.6773 6.06678 20.592C5.46411 20.4053 5.03211 20.1813 4.77078 19.92C4.51478 19.6587 4.38678 19.3173 4.38678 18.896C4.38678 18.5867 4.46945 18.3147 4.63478 18.08C4.80011 17.84 5.02945 17.656 5.32278 17.528C5.61611 17.4 5.94945 17.336 6.32278 17.336ZM10.8702 17.464C11.5902 17.464 12.1476 17.6133 12.5422 17.912C12.9422 18.2107 13.1422 18.656 13.1422 19.248C13.1422 19.8667 12.9449 20.3333 12.5502 20.648C12.1556 20.9573 11.6276 21.112 10.9662 21.112H10.3342V23H9.15822V17.464H10.8702ZM10.8702 20.248C11.2116 20.248 11.4729 20.1707 11.6542 20.016C11.8356 19.8613 11.9262 19.6053 11.9262 19.248C11.9262 18.624 11.5689 18.312 10.8542 18.312H10.3342V20.248H10.8702ZM18.0833 21.176C18.0833 21.5547 18.0033 21.8907 17.8433 22.184C17.6833 22.4773 17.4433 22.7093 17.1233 22.88C16.8086 23.0453 16.4246 23.128 15.9713 23.128C15.2886 23.128 14.7659 22.952 14.4033 22.6C14.0459 22.2427 13.8673 21.768 13.8673 21.176V17.464H15.0433V21.12C15.0433 21.4933 15.1179 21.7733 15.2673 21.96C15.4166 22.1413 15.6513 22.232 15.9713 22.232C16.2913 22.232 16.5259 22.1413 16.6753 21.96C16.8299 21.7733 16.9073 21.4933 16.9073 21.12V17.464H18.0833V21.176ZM20.9577 20.832H20.3577V23H19.1817V17.464H20.9097C21.651 17.464 22.2083 17.6027 22.5817 17.88C22.955 18.152 23.1417 18.5653 23.1417 19.12C23.1417 19.4827 23.051 19.7813 22.8697 20.016C22.6937 20.2507 22.419 20.4507 22.0457 20.616L23.4777 23H22.1417L20.9577 20.832ZM20.3577 20H20.9737C21.2883 20 21.5257 19.9307 21.6857 19.792C21.8457 19.648 21.9257 19.424 21.9257 19.12C21.9257 18.8373 21.8403 18.632 21.6697 18.504C21.5043 18.3707 21.243 18.304 20.8857 18.304H20.3577V20Z" fill="white"/>
</g>
</g>
</g>
</g>
</svg>
