<svg width="21" height="18" viewBox="0 0 21 18" fill="none" xmlns="http://www.w3.org/2000/svg">
<g id="day / usa_f_ND_01">
<g id="usa_f_base">
<g id="stretchable-items">
<g id="ND">
<rect id="shape01" x="1.5" y="1.5" width="18" height="15" fill="white" stroke="#888B8F"/>
<path id="shape02" d="M1 1V17H2L2.5 7H18L19 17H20V1H1Z" fill="#888B8F"/>
</g>
</g>
<g id="non-stretchable-items">
<g id="ND_2">
<g id="shape01_2">
<path d="M10.1793 5.99906H9.23434L8.13434 3.25406C8.16434 3.49073 8.18767 3.71406 8.20434 3.92406C8.22434 4.13073 8.23434 4.37406 8.23434 4.65406V5.99906H7.56934V2.53906H8.49434L9.61434 5.28906C9.54767 4.8424 9.51434 4.4324 9.51434 4.05906V2.53906H10.1793V5.99906Z" fill="white"/>
<path d="M11.8142 2.53906C12.3542 2.53906 12.7858 2.6624 13.1092 2.90906C13.4358 3.1524 13.5992 3.60073 13.5992 4.25406C13.5992 4.89406 13.4392 5.34573 13.1192 5.60906C12.8025 5.86906 12.3958 5.99906 11.8992 5.99906H10.9092V2.53906H11.8142ZM11.6442 3.07906V5.45906H11.9442C12.2275 5.45906 12.4458 5.3724 12.5992 5.19906C12.7558 5.0224 12.8342 4.7074 12.8342 4.25406C12.8342 3.94073 12.7942 3.6974 12.7142 3.52406C12.6375 3.35073 12.5342 3.23406 12.4042 3.17406C12.2742 3.11073 12.1158 3.07906 11.9292 3.07906H11.6442Z" fill="white"/>
</g>
</g>
</g>
</g>
</g>
</svg>
