<svg width="19" height="18" viewBox="0 0 19 18" fill="none" xmlns="http://www.w3.org/2000/svg">
<g id="day / usa_a_MT_01">
<g id="usa_a_base">
<g id="stretchable-items">
<rect id="shape01" x="1.5" y="1.5" width="16" height="15" fill="white" stroke="#888B8F"/>
</g>
<g id="non-stretchable-items">
<g id="MT">
<g id="shape01_2">
<path d="M10.0376 6.45609H9.31758L9.24258 5.05109C9.21924 4.63109 9.20758 4.27443 9.20758 3.98109C9.20758 3.82443 9.20924 3.71109 9.21258 3.64109L8.62758 6.08609H7.93258L7.30758 3.63609C7.32091 3.83943 7.32758 4.06776 7.32758 4.32109C7.32758 4.59109 7.32091 4.83943 7.30758 5.06609L7.23258 6.45609H6.51758L6.78758 2.99609H7.72258L8.29258 5.38109L8.82758 2.99609H9.77258L10.0376 6.45609Z" fill="#888B8F"/>
<path d="M12.7355 3.57109H11.8605V6.45609H11.1255V3.57109H10.2055V2.99609H12.8155L12.7355 3.57109Z" fill="#888B8F"/>
</g>
</g>
</g>
</g>
</g>
</svg>
