<svg width="19" height="20" viewBox="0 0 19 20" fill="none" xmlns="http://www.w3.org/2000/svg">
<g id="day / usa_MN_01">
<g id="usa_MN_base">
<g id="stretchable-items">
<rect id="shape01" x="1.5" y="1.5" width="16" height="17" fill="#5397F0" stroke="#FFD28A"/>
<rect id="shape02" x="1" y="1" width="17" height="6" fill="#FFD28A"/>
</g>
<g id="non-stretchable-items">
<g id="shape01_2">
<path d="M9.59031 5.99906H8.87031L8.79531 4.59406C8.77198 4.17406 8.76031 3.8174 8.76031 3.52406C8.76031 3.3674 8.76198 3.25406 8.76531 3.18406L8.18031 5.62906H7.48531L6.86031 3.17906C6.87365 3.3824 6.88031 3.61073 6.88031 3.86406C6.88031 4.13406 6.87365 4.3824 6.86031 4.60906L6.78531 5.99906H6.07031L6.34031 2.53906H7.27531L7.84531 4.92406L8.38031 2.53906H9.32531L9.59031 5.99906Z" fill="#888B8F"/>
<path d="M12.7662 5.99906H11.8212L10.7212 3.25406C10.7512 3.49073 10.7745 3.71406 10.7912 3.92406C10.8112 4.13073 10.8212 4.37406 10.8212 4.65406V5.99906H10.1562V2.53906H11.0812L12.2012 5.28906C12.1345 4.8424 12.1012 4.4324 12.1012 4.05906V2.53906H12.7662V5.99906Z" fill="#888B8F"/>
</g>
</g>
</g>
</g>
</svg>
