<svg width="21" height="20" viewBox="0 0 21 20" fill="none" xmlns="http://www.w3.org/2000/svg">
<g id="day / usa_e_CA_01">
<g id="usa_e_base">
<g id="stretchable-items">
<g id="CA">
<path id="shape01" d="M1.529 12.0091L1.52909 12.0091L1.52909 12C1.52909 9.38165 2.711 6.74476 4.45468 4.75767C6.20507 2.76294 8.45052 1.5 10.5145 1.5C12.5785 1.5 14.824 2.76294 16.5744 4.75768C18.3181 6.74477 19.5 9.38165 19.5 12L19.5 14.8601C19.5 16.0072 18.8579 17.0478 17.6853 17.4344C16.1282 17.9478 13.7108 18.5 10.5145 18.5C7.25956 18.5 4.81241 17.9273 3.25883 17.4062C2.1286 17.027 1.50352 16.0369 1.50048 14.9413C1.49813 14.0932 1.5039 13.3814 1.529 12.0091Z" fill="#53C2AE" stroke="white"/>
</g>
</g>
<g id="non-stretchable-items">
<g id="CA_2">
<g id="shape01_2">
<path d="M9.33687 4.21289C9.55354 4.21289 9.74187 4.24456 9.90188 4.30789C10.0619 4.36789 10.2185 4.46122 10.3719 4.58789L10.0069 5.01289C9.80688 4.84956 9.59687 4.76789 9.37687 4.76789C9.13021 4.76789 8.93354 4.86956 8.78688 5.07289C8.64354 5.27289 8.57188 5.58789 8.57188 6.01789C8.57188 6.43789 8.64354 6.74956 8.78688 6.95289C8.93354 7.15289 9.13187 7.25289 9.38188 7.25289C9.51188 7.25289 9.63021 7.22956 9.73688 7.18289C9.84354 7.13289 9.95521 7.06289 10.0719 6.97289L10.4119 7.39789C10.2885 7.52456 10.1352 7.62956 9.95187 7.71289C9.77188 7.79289 9.57188 7.83289 9.35188 7.83289C9.04188 7.83289 8.77021 7.76289 8.53688 7.62289C8.30354 7.48289 8.12188 7.27789 7.99188 7.00789C7.86188 6.73456 7.79688 6.40456 7.79688 6.01789C7.79688 5.64122 7.86354 5.31789 7.99688 5.04789C8.13021 4.77456 8.31354 4.56789 8.54688 4.42789C8.78021 4.28456 9.04354 4.21289 9.33687 4.21289Z" fill="white"/>
<path d="M12.4633 6.97789H11.3783L11.1833 7.75289H10.4183L11.4833 4.29289H12.3783L13.4383 7.75289H12.6583L12.4633 6.97789ZM12.3233 6.43289L11.9183 4.83789L11.5183 6.43289H12.3233Z" fill="white"/>
</g>
</g>
</g>
</g>
</g>
</svg>
