<svg width="20" height="26" viewBox="0 0 20 26" fill="none" xmlns="http://www.w3.org/2000/svg">
<path d="M6.13616 20.3055L6.13478 20.3041C3.79676 17.9165 2.64973 16.0109 2.07934 14.4183C1.50975 12.8278 1.5 11.5122 1.5 10.2415C1.5 5.40107 5.32485 1.5 9.99133 1.5C14.659 1.5 18.5 5.40234 18.5 10.2415C18.5 11.5122 18.4903 12.8278 17.9207 14.4183C17.3503 16.0109 16.2033 17.9165 13.8652 20.3041L13.8639 20.3055L10 24.2825L6.13616 20.3055Z" fill="#4A505E" stroke="#717C95"/>
<path d="M13.88 11.5L13.38 10.35C13.2845 10.1205 13.1293 9.92066 12.9307 9.77122C12.732 9.62178 12.497 9.52814 12.25 9.5V10.525C12.3431 10.5705 12.4162 10.6489 12.455 10.745L13 12H7L7.555 10.755C7.59384 10.6589 7.66686 10.5805 7.76 10.535V9.5C7.51299 9.52814 7.278 9.62178 7.07932 9.77122C6.88065 9.92066 6.72553 10.1205 6.63 10.35L6.13 11.5H5.25C5.17238 11.5582 5.10938 11.6337 5.06598 11.7205C5.02259 11.8073 5 11.903 5 12C5 12.097 5.02259 12.1927 5.06598 12.2795C5.10938 12.3663 5.17238 12.4418 5.25 12.5H5.5V15.5C5.5 15.6326 5.55268 15.7598 5.64645 15.8536C5.74021 15.9473 5.86739 16 6 16H7.5C7.63261 16 7.75978 15.9473 7.85355 15.8536C7.94732 15.7598 8 15.6326 8 15.5V15H12V15.5C12 15.6326 12.0527 15.7598 12.1464 15.8536C12.2402 15.9473 12.3674 16 12.5 16H14C14.1326 16 14.2598 15.9473 14.3536 15.8536C14.4473 15.7598 14.5 15.6326 14.5 15.5V12.5H14.75C14.8276 12.4418 14.8906 12.3663 14.934 12.2795C14.9774 12.1927 15 12.097 15 12C15 11.903 14.9774 11.8073 14.934 11.7205C14.8906 11.6337 14.8276 11.5582 14.75 11.5H13.88ZM8 14H6.75C6.67238 13.9418 6.60938 13.8663 6.56598 13.7795C6.52259 13.6927 6.5 13.597 6.5 13.5C6.5 13.403 6.52259 13.3073 6.56598 13.2205C6.60938 13.1337 6.67238 13.0582 6.75 13H8V14ZM13.25 14H12V13H13.25C13.3276 13.0582 13.3906 13.1337 13.434 13.2205C13.4774 13.3073 13.5 13.403 13.5 13.5C13.5 13.597 13.4774 13.6927 13.434 13.7795C13.3906 13.8663 13.3276 13.9418 13.25 14ZM9.945 10.08C9.59404 10.0783 9.25661 9.94442 9 9.705L8.9 9.63L8.345 10.25L8.43 10.335C8.72641 10.6145 9.09855 10.8006 9.5 10.87V11.5H10.5V10.86C10.8078 10.8102 11.0879 10.6526 11.2903 10.4154C11.4927 10.1782 11.6043 9.87682 11.605 9.565C11.605 8.75 11.105 8.42 10.33 8.18C9.665 7.975 9.595 7.865 9.595 7.68C9.595 7.36 9.94 7.33 10.095 7.33C10.397 7.33004 10.6885 7.44027 10.915 7.64L11.01 7.72L11.545 7.1L11.45 7C11.1878 6.74571 10.8581 6.57215 10.5 6.5V6H9.5V6.565C9.23522 6.62255 8.99771 6.76802 8.82612 6.97774C8.65454 7.18745 8.55898 7.44906 8.555 7.72C8.555 8.375 8.93 8.76 9.85 9.045C10.485 9.24 10.555 9.37 10.555 9.605C10.555 10.045 10.085 10.08 9.945 10.08Z" fill="#BFBFBF"/>
</svg>
