<svg width="20" height="26" viewBox="0 0 20 26" fill="none" xmlns="http://www.w3.org/2000/svg">
<path d="M6.13616 20.3055L6.13478 20.3041C3.79676 17.9165 2.64973 16.0109 2.07934 14.4183C1.50975 12.8278 1.5 11.5122 1.5 10.2415C1.5 5.40107 5.32485 1.5 9.99133 1.5C14.659 1.5 18.5 5.40234 18.5 10.2415C18.5 11.5122 18.4903 12.8278 17.9207 14.4183C17.3503 16.0109 16.2033 17.9165 13.8652 20.3041L13.8639 20.3055L10 24.2825L6.13616 20.3055Z" fill="#4A505E" stroke="#717C95"/>
<path d="M11.75 7C11.75 6.80222 11.8086 6.60888 11.9185 6.44443C12.0284 6.27998 12.1846 6.15181 12.3673 6.07612C12.55 6.00043 12.7511 5.98063 12.9451 6.01922C13.1391 6.0578 13.3173 6.15304 13.4571 6.29289C13.597 6.43275 13.6922 6.61093 13.7308 6.80491C13.7694 6.99889 13.7496 7.19996 13.6739 7.38268C13.5982 7.56541 13.47 7.72159 13.3056 7.83147C13.1411 7.94135 12.9478 8 12.75 8C12.4848 8 12.2304 7.89464 12.0429 7.70711C11.8554 7.51957 11.75 7.26522 11.75 7ZM10 8C10.1978 8 10.3911 7.94135 10.5556 7.83147C10.72 7.72159 10.8482 7.56541 10.9239 7.38268C10.9996 7.19996 11.0194 6.99889 10.9808 6.80491C10.9422 6.61093 10.847 6.43275 10.7071 6.29289C10.5673 6.15304 10.3891 6.0578 10.1951 6.01922C10.0011 5.98063 9.80004 6.00043 9.61732 6.07612C9.43459 6.15181 9.27841 6.27998 9.16853 6.44443C9.05865 6.60888 9 6.80222 9 7C9 7.26522 9.10536 7.51957 9.29289 7.70711C9.48043 7.89464 9.73478 8 10 8ZM14.5 10C14.6761 9.99817 14.8486 9.94988 15 9.86V8.14C14.8673 8.06127 14.7181 8.01432 14.5642 8.00283C14.4104 7.99134 14.2559 8.01562 14.113 8.07377C13.97 8.13193 13.8425 8.22237 13.7403 8.33803C13.6381 8.45369 13.5641 8.59142 13.5241 8.74045C13.484 8.88948 13.479 9.04576 13.5094 9.19705C13.5398 9.34834 13.6048 9.49055 13.6993 9.61253C13.7938 9.73452 13.9153 9.83298 14.0542 9.9002C14.1931 9.96742 14.3457 10.0016 14.5 10ZM5 9.86C5.15183 9.95009 5.32481 9.99838 5.50135 9.99996C5.67789 10.0015 5.8517 9.95635 6.00512 9.86899C6.15854 9.78163 6.28609 9.65521 6.37482 9.50258C6.46355 9.34995 6.51029 9.17655 6.51029 9C6.51029 8.82345 6.46355 8.65005 6.37482 8.49742C6.28609 8.34479 6.15854 8.21837 6.00512 8.13101C5.8517 8.04365 5.67789 7.99846 5.50135 8.00004C5.32481 8.00162 5.15183 8.04991 5 8.14V9.86ZM13.88 11.5H14.75C14.8276 11.5582 14.8906 11.6337 14.934 11.7205C14.9774 11.8073 15 11.903 15 12C15 12.097 14.9774 12.1927 14.934 12.2795C14.8906 12.3663 14.8276 12.4418 14.75 12.5H14.5V15.5C14.5 15.6326 14.4473 15.7598 14.3536 15.8536C14.2598 15.9473 14.1326 16 14 16H12.5C12.3674 16 12.2402 15.9473 12.1464 15.8536C12.0527 15.7598 12 15.6326 12 15.5V15H8V15.5C8 15.6326 7.94732 15.7598 7.85355 15.8536C7.75978 15.9473 7.63261 16 7.5 16H6C5.86739 16 5.74021 15.9473 5.64645 15.8536C5.55268 15.7598 5.5 15.6326 5.5 15.5V12.5H5.25C5.17238 12.4418 5.10938 12.3663 5.06598 12.2795C5.02259 12.1927 5 12.097 5 12C5 11.903 5.02259 11.8073 5.06598 11.7205C5.10938 11.6337 5.17238 11.5582 5.25 11.5H6.12L6.62 10.35C6.72569 10.1009 6.90156 9.8879 7.12616 9.73698C7.35077 9.58606 7.61442 9.50372 7.885 9.5H12.115C12.3839 9.50564 12.6454 9.58887 12.868 9.73968C13.0907 9.89048 13.265 10.1024 13.37 10.35L13.88 11.5ZM8 13H6.75C6.67238 13.0582 6.60938 13.1337 6.56598 13.2205C6.52259 13.3073 6.5 13.403 6.5 13.5C6.5 13.597 6.52259 13.6927 6.56598 13.7795C6.60938 13.8663 6.67238 13.9418 6.75 14H8V13ZM13 12L12.445 10.755C12.4185 10.6845 12.3725 10.6231 12.3122 10.5779C12.252 10.5327 12.1801 10.5057 12.105 10.5H7.885C7.80992 10.5057 7.73802 10.5327 7.67778 10.5779C7.61754 10.6231 7.57147 10.6845 7.545 10.755L7 12H13ZM13.245 13H12V14H13.255C13.605 13.69 13.58 13.355 13.255 13H13.245ZM7.25 8C7.44778 8 7.64112 7.94135 7.80557 7.83147C7.97002 7.72159 8.09819 7.56541 8.17388 7.38268C8.24957 7.19996 8.26937 6.99889 8.23078 6.80491C8.1922 6.61093 8.09696 6.43275 7.95711 6.29289C7.81725 6.15304 7.63907 6.0578 7.44509 6.01922C7.25111 5.98063 7.05004 6.00043 6.86732 6.07612C6.68459 6.15181 6.52841 6.27998 6.41853 6.44443C6.30865 6.60888 6.25 6.80222 6.25 7C6.25 7.26522 6.35536 7.51957 6.54289 7.70711C6.73043 7.89464 6.98478 8 7.25 8Z" fill="#BFBFBF"/>
</svg>
