<svg width="20" height="26" viewBox="0 0 20 26" fill="none" xmlns="http://www.w3.org/2000/svg">
<path d="M6.13616 20.3055L6.13478 20.3041C3.79676 17.9165 2.64973 16.0109 2.07934 14.4183C1.50975 12.8278 1.5 11.5122 1.5 10.2415C1.5 5.40107 5.32485 1.5 9.99133 1.5C14.659 1.5 18.5 5.40234 18.5 10.2415C18.5 11.5122 18.4903 12.8278 17.9207 14.4183C17.3503 16.0109 16.2033 17.9165 13.8652 20.3041L13.8639 20.3055L10 24.2825L6.13616 20.3055Z" fill="#4D3D3A" stroke="#82655F"/>
<path d="M13.5 6.9993C13.5 6.86669 13.4473 6.73952 13.3536 6.64575C13.2598 6.55198 13.1326 6.4993 13 6.4993H11.75V6.2493C10.6074 5.91429 9.39262 5.91429 8.25 6.2493V6.4993H7C6.86739 6.4993 6.74021 6.55198 6.64645 6.64575C6.55268 6.73952 6.5 6.86669 6.5 6.9993L6.25 13.9993H13.75L13.5 6.9993ZM12 10.9993H8V9.9993H12V10.9993ZM12 8.9993H8V7.9993H12V8.9993ZM15 14.9993V15.9993H5V14.9993H15Z" fill="#BFBFBF"/>
</svg>
