<svg width="20" height="26" viewBox="0 0 20 26" fill="none" xmlns="http://www.w3.org/2000/svg">
<path d="M6.13616 20.3055L6.13478 20.3041C3.79676 17.9165 2.64973 16.0109 2.07934 14.4183C1.50975 12.8278 1.5 11.5122 1.5 10.2415C1.5 5.40107 5.32485 1.5 9.99133 1.5C14.659 1.5 18.5 5.40234 18.5 10.2415C18.5 11.5122 18.4903 12.8278 17.9207 14.4183C17.3503 16.0109 16.2033 17.9165 13.8652 20.3041L13.8639 20.3055L10 24.2825L6.13616 20.3055Z" fill="#4D3D3A" stroke="#82655F"/>
<path d="M10 7C10.7911 7 11.5645 7.2346 12.2223 7.67412C12.8801 8.11365 13.3928 8.73836 13.6955 9.46927C13.9983 10.2002 14.0775 11.0044 13.9231 11.7804C13.7688 12.5563 13.3878 13.269 12.8284 13.8284C12.269 14.3878 11.5563 14.7688 10.7804 14.9231C10.0044 15.0775 9.20017 14.9983 8.46927 14.6955C7.73836 14.3928 7.11365 13.8801 6.67412 13.2223C6.2346 12.5645 6 11.7911 6 11C6 9.93913 6.42143 8.92172 7.17157 8.17157C7.92172 7.42143 8.93914 7 10 7V7ZM10 6C9.0111 6 8.0444 6.29324 7.22215 6.84265C6.39991 7.39206 5.75904 8.17295 5.3806 9.08658C5.00217 10.0002 4.90315 11.0055 5.09608 11.9755C5.289 12.9454 5.76521 13.8363 6.46447 14.5355C7.16373 15.2348 8.05465 15.711 9.02455 15.9039C9.99446 16.0969 10.9998 15.9978 11.9134 15.6194C12.827 15.241 13.6079 14.6001 14.1573 13.7779C14.7068 12.9556 15 11.9889 15 11C15 10.3434 14.8707 9.69321 14.6194 9.08658C14.3681 8.47995 13.9998 7.92876 13.5355 7.46447C13.0712 7.00017 12.52 6.63188 11.9134 6.3806C11.3068 6.12933 10.6566 6 10 6V6ZM10 9C10.3956 9 10.7822 9.1173 11.1111 9.33706C11.44 9.55682 11.6964 9.86918 11.8478 10.2346C11.9991 10.6001 12.0387 11.0022 11.9616 11.3902C11.8844 11.7781 11.6939 12.1345 11.4142 12.4142C11.1345 12.6939 10.7781 12.8844 10.3902 12.9616C10.0022 13.0387 9.60009 12.9991 9.23463 12.8478C8.86918 12.6964 8.55683 12.44 8.33706 12.1111C8.1173 11.7822 8 11.3956 8 11C8 10.4696 8.21072 9.96086 8.58579 9.58579C8.96086 9.21071 9.46957 9 10 9V9ZM10 8C9.40666 8 8.82664 8.17595 8.33329 8.50559C7.83994 8.83524 7.45543 9.30377 7.22836 9.85195C7.0013 10.4001 6.94189 11.0033 7.05765 11.5853C7.1734 12.1672 7.45912 12.7018 7.87868 13.1213C8.29824 13.5409 8.83279 13.8266 9.41473 13.9424C9.99667 14.0581 10.5999 13.9987 11.1481 13.7716C11.6962 13.5446 12.1648 13.1601 12.4944 12.6667C12.8241 12.1734 13 11.5933 13 11C13 10.2044 12.6839 9.44129 12.1213 8.87868C11.5587 8.31607 10.7957 8 10 8Z" fill="#BFBFBF"/>
</svg>
