<svg width="20" height="26" viewBox="0 0 20 26" fill="none" xmlns="http://www.w3.org/2000/svg">
<path d="M6.13616 20.3055L6.13478 20.3041C3.79676 17.9165 2.64973 16.0109 2.07934 14.4183C1.50975 12.8278 1.5 11.5122 1.5 10.2415C1.5 5.40107 5.32485 1.5 9.99133 1.5C14.659 1.5 18.5 5.40234 18.5 10.2415C18.5 11.5122 18.4903 12.8278 17.9207 14.4183C17.3503 16.0109 16.2033 17.9165 13.8652 20.3041L13.8639 20.3055L10 24.2825L6.13616 20.3055Z" fill="#784F28" stroke="#AE7949"/>
<path d="M7.185 14H11.565C11.8185 14.0006 12.0628 13.9049 12.2485 13.7323C12.4341 13.5596 12.5473 13.3229 12.565 13.07L12.715 11H12.92C13.3907 11.0088 13.8502 10.8556 14.2215 10.5662C14.5929 10.2768 14.8535 9.86861 14.96 9.41C15.021 9.11868 15.0162 8.81741 14.946 8.52817C14.8758 8.23893 14.7419 7.969 14.5541 7.73809C14.3663 7.50717 14.1293 7.32108 13.8605 7.19339C13.5916 7.0657 13.2976 6.99963 13 7H5.75L6.185 13.065C6.20153 13.3188 6.31414 13.5568 6.49992 13.7305C6.68569 13.9041 6.93067 14.0005 7.185 14ZM13 8C13.1596 7.99932 13.317 8.03684 13.4592 8.10944C13.6013 8.18204 13.724 8.2876 13.817 8.4173C13.91 8.54701 13.9706 8.69709 13.9937 8.855C14.0169 9.01291 14.0019 9.17407 13.95 9.325C13.8755 9.52837 13.7387 9.70306 13.5592 9.82424C13.3796 9.94542 13.1665 10.0069 12.95 10H12.79L12.935 8H13ZM5 15H14.5L14.275 15.445C14.1922 15.6116 14.0646 15.7518 13.9065 15.8499C13.7484 15.9479 13.566 15.9999 13.38 16H6.12C5.93396 15.9999 5.75163 15.9479 5.59352 15.8499C5.43541 15.7518 5.30779 15.6116 5.225 15.445L5 15Z" fill="#BFBFBF"/>
</svg>
