<svg width="20" height="26" viewBox="0 0 20 26" fill="none" xmlns="http://www.w3.org/2000/svg">
<path d="M6.13616 20.3055L6.13478 20.3041C3.79676 17.9165 2.64973 16.0109 2.07934 14.4183C1.50975 12.8278 1.5 11.5122 1.5 10.2415C1.5 5.40107 5.32485 1.5 9.99133 1.5C14.659 1.5 18.5 5.40234 18.5 10.2415C18.5 11.5122 18.4903 12.8278 17.9207 14.4183C17.3503 16.0109 16.2033 17.9165 13.8652 20.3041L13.8639 20.3055L10 24.2825L6.13616 20.3055Z" fill="#4D3D3A" stroke="#82655F"/>
<path d="M14 9V8H10.5V7H9.5V8H6V9H7.295L9.295 11L6.465 13.83L7.17 14.535L10 11.705L12.83 14.535L13.535 13.83L10.705 11L12.705 9H14ZM10 10.295L8.705 9H11.295L10 10.295Z" fill="#BFBFBF"/>
</svg>
