<svg width="20" height="26" viewBox="0 0 20 26" fill="none" xmlns="http://www.w3.org/2000/svg">
<path d="M6.13616 20.3055L6.13478 20.3041C3.79676 17.9165 2.64973 16.0109 2.07934 14.4183C1.50975 12.8278 1.5 11.5122 1.5 10.2415C1.5 5.40107 5.32485 1.5 9.99133 1.5C14.659 1.5 18.5 5.40234 18.5 10.2415C18.5 11.5122 18.4903 12.8278 17.9207 14.4183C17.3503 16.0109 16.2033 17.9165 13.8652 20.3041L13.8639 20.3055L10 24.2825L6.13616 20.3055Z" fill="#7D1C32" stroke="#B74659"/>
<path d="M14.5 7H13.5C13.5 7.92826 13.1312 8.8185 12.4749 9.47487C11.8185 10.1313 10.9283 10.5 10 10.5C9.07174 10.5 8.1815 10.1313 7.52513 9.47487C6.86875 8.8185 6.5 7.92826 6.5 7H5.5C5.50053 8.10653 5.90873 9.17408 6.64661 9.99866C7.38449 10.8232 8.40032 11.3471 9.5 11.47V15H10.5V11.47C11.5997 11.3471 12.6155 10.8232 13.3534 9.99866C14.0913 9.17408 14.4995 8.10653 14.5 7V7Z" fill="#BFBFBF"/>
</svg>
