<svg width="20" height="26" viewBox="0 0 20 26" fill="none" xmlns="http://www.w3.org/2000/svg">
<path d="M6.13616 20.3055L6.13478 20.3041C3.79676 17.9165 2.64973 16.0109 2.07934 14.4183C1.50975 12.8278 1.5 11.5122 1.5 10.2415C1.5 5.40107 5.32485 1.5 9.99133 1.5C14.659 1.5 18.5 5.40234 18.5 10.2415C18.5 11.5122 18.4903 12.8278 17.9207 14.4183C17.3503 16.0109 16.2033 17.9165 13.8652 20.3041L13.8639 20.3055L10 24.2825L6.13616 20.3055Z" fill="#4D3D3A" stroke="#82655F"/>
<path d="M15 7H13.19C12.4766 7 11.7924 7.28341 11.2879 7.78788C10.7834 8.29236 10.5 8.97657 10.5 9.69V15.5H11C11 15.2348 11.1054 14.9804 11.2929 14.7929C11.4804 14.6054 11.7348 14.5 12 14.5H15V7ZM5 7H6.825C7.17736 7.00065 7.52614 7.07079 7.85137 7.20639C8.1766 7.34199 8.47189 7.5404 8.72036 7.79025C8.96882 8.04011 9.16557 8.33651 9.29935 8.66249C9.43313 8.98847 9.50131 9.33764 9.5 9.69V15.5H9C9 15.2348 8.89464 14.9804 8.70711 14.7929C8.51957 14.6054 8.26522 14.5 8 14.5H5V7Z" fill="#BFBFBF"/>
</svg>
