<svg width="20" height="26" viewBox="0 0 20 26" fill="none" xmlns="http://www.w3.org/2000/svg">
<circle cx="10" cy="13" r="8.5" fill="#28497A" stroke="#5174B2"/>
<path d="M13.9499 13.155L13.4999 9.41C13.477 9.02798 13.3088 8.66918 13.03 8.40706C12.7511 8.14494 12.3826 7.99931 11.9999 8H7.99991C7.6172 7.99931 7.2487 8.14494 6.96985 8.40706C6.69099 8.66918 6.52288 9.02798 6.49991 9.41L6.04991 13.155C6.00872 13.5469 6.06187 13.9429 6.20491 14.31L6.96991 16.05C7.04772 16.2531 7.18453 16.4284 7.36274 16.5531C7.54095 16.6779 7.75241 16.7464 7.96991 16.75L8.27991 15.25C8.33623 15.0317 8.46465 14.8388 8.64436 14.7027C8.82407 14.5665 9.04451 14.4951 9.26991 14.5H10.7299C10.9541 14.4991 11.1721 14.5735 11.3489 14.7113C11.5257 14.8491 11.6511 15.0424 11.7049 15.26L11.9849 16.76C12.2024 16.7564 12.4139 16.6879 12.5921 16.5631C12.7703 16.4384 12.9071 16.2631 12.9849 16.06L13.7749 14.32C13.9264 13.9515 13.9864 13.5518 13.9499 13.155ZM7.94991 9H12.0599C12.2089 9.00331 12.3514 9.06198 12.4595 9.16458C12.5677 9.26717 12.6338 9.40635 12.6449 9.555C12.6449 9.555 12.6949 10.66 12.7249 11.5H7.25991C7.29491 10.66 7.35991 9.555 7.35991 9.555C7.37114 9.40551 7.43793 9.26563 7.54713 9.16292C7.65632 9.0602 7.80001 9.00208 7.94991 9V9ZM8.49991 13.75H7.49991C7.44259 13.7501 7.38585 13.7385 7.3332 13.7158C7.28054 13.6932 7.23308 13.66 7.19373 13.6183C7.15438 13.5766 7.12399 13.5273 7.10441 13.4734C7.08484 13.4195 7.0765 13.3622 7.07991 13.305L7.10491 12.895C7.11136 12.7862 7.15982 12.6843 7.24005 12.6106C7.32028 12.5369 7.42601 12.4972 7.53491 12.5H8.49991V13.75ZM12.4999 13.75H11.4999V12.5H12.4649C12.5721 12.4998 12.6753 12.5406 12.7534 12.6141C12.8315 12.6875 12.8785 12.788 12.8849 12.895L12.9099 13.305C12.9133 13.3614 12.9053 13.4179 12.8863 13.4711C12.8673 13.5243 12.8378 13.5731 12.7995 13.6147C12.7613 13.6562 12.715 13.6896 12.6635 13.7129C12.612 13.7361 12.5564 13.7488 12.4999 13.75ZM10.8549 15.88L11.2349 18H8.73491L9.12491 15.885C9.15229 15.7741 9.21684 15.6758 9.30781 15.6067C9.39879 15.5376 9.5107 15.5017 9.62491 15.505H10.3399C10.4543 15.5002 10.5669 15.5349 10.6588 15.6031C10.7507 15.6714 10.8164 15.7691 10.8449 15.88H10.8549Z" fill="#BFBFBF"/>
</svg>
