<svg width="20" height="26" viewBox="0 0 20 26" fill="none" xmlns="http://www.w3.org/2000/svg">
<path d="M6.13616 20.3055L6.13478 20.3041C3.79676 17.9165 2.64973 16.0109 2.07934 14.4183C1.50975 12.8278 1.5 11.5122 1.5 10.2415C1.5 5.40107 5.32485 1.5 9.99133 1.5C14.659 1.5 18.5 5.40234 18.5 10.2415C18.5 11.5122 18.4903 12.8278 17.9207 14.4183C17.3503 16.0109 16.2033 17.9165 13.8652 20.3041L13.8639 20.3055L10 24.2825L6.13616 20.3055Z" fill="#144C4D" stroke="#2F7A7C"/>
<path d="M12.1 6.8L10.45 7.325L8.95 5.75L4.75 11.45V16.25H6.8125L8.7625 14.75C9.05078 14.5127 9.06206 14.0298 8.8 13.7719L7.75 12.8C7.12539 12.1987 7.49016 11.1112 8.35 11L10.975 10.7L11.3125 11.0375L9.02529 11.5221C8.6699 11.5965 8.6182 12.0826 8.95 12.23L11.9077 13.5287C12.4095 13.7608 12.7029 14.2916 12.6325 14.84L12.475 16.25H15.25V11.525L12.1 6.8ZM9.055 7.3775L10.1575 8.525L11.635 8.0375L12.5783 9.5H7.54419L9.055 7.3775Z" fill="#BFBFBF"/>
</svg>
