<svg width="20" height="26" viewBox="0 0 20 26" fill="none" xmlns="http://www.w3.org/2000/svg">
<path d="M6.13616 20.3055L6.13478 20.3041C3.79676 17.9165 2.64973 16.0109 2.07934 14.4183C1.50975 12.8278 1.5 11.5122 1.5 10.2415C1.5 5.40107 5.32485 1.5 9.99133 1.5C14.659 1.5 18.5 5.40234 18.5 10.2415C18.5 11.5122 18.4903 12.8278 17.9207 14.4183C17.3503 16.0109 16.2033 17.9165 13.8652 20.3041L13.8639 20.3055L10 24.2825L6.13616 20.3055Z" fill="#4D3D3A" stroke="#82655F"/>
<path d="M10 8C12.205 8 14 9.345 14 11C14 12.655 12.205 14 10 14C7.795 14 6 12.655 6 11C6 9.345 7.795 8 10 8ZM10 7C7.24 7 5 8.79 5 11C5 13.21 7.24 15 10 15C12.76 15 15 13.21 15 11C15 8.79 12.76 7 10 7ZM10 10C11.22 10 12 10.59 12 11C12 11.41 11.22 12 10 12C8.78 12 8 11.41 8 11C8 10.59 8.78 10 10 10ZM10 9C8.345 9 7 9.895 7 11C7 12.105 8.345 13 10 13C11.655 13 13 12.105 13 11C13 9.895 11.655 9 10 9Z" fill="#BFBFBF"/>
</svg>
