<svg width="20" height="26" viewBox="0 0 20 26" fill="none" xmlns="http://www.w3.org/2000/svg">
<path d="M6.13616 20.3055L6.13478 20.3041C3.79676 17.9165 2.64973 16.0109 2.07934 14.4183C1.50975 12.8278 1.5 11.5122 1.5 10.2415C1.5 5.40107 5.32485 1.5 9.99133 1.5C14.659 1.5 18.5 5.40234 18.5 10.2415C18.5 11.5122 18.4903 12.8278 17.9207 14.4183C17.3503 16.0109 16.2033 17.9165 13.8652 20.3041L13.8639 20.3055L10 24.2825L6.13616 20.3055Z" fill="#255978" stroke="#4687B0"/>
<path d="M15 9L13 7L12.5 7.545L13.5 8.545V11L14 11.5V14C14 14.2652 13.8946 14.5196 13.7071 14.7071C13.5196 14.8946 13.2652 15 13 15H11V7C11.0109 6.74699 10.9214 6.49993 10.7509 6.31262C10.5805 6.12532 10.3429 6.01296 10.09 6H6.91C6.65709 6.01296 6.41954 6.12532 6.24909 6.31262C6.07865 6.49993 5.98912 6.74699 6 7V15H5V16H13C13.5304 16 14.0391 15.7893 14.4142 15.4142C14.7893 15.0391 15 14.5304 15 14V9ZM7 7H10V10.5H7V7Z" fill="#BFBFBF"/>
</svg>
