<svg width="21" height="26" viewBox="0 0 21 26" fill="none" xmlns="http://www.w3.org/2000/svg">
<path d="M6.63616 20.3055L6.63478 20.3041C4.29676 17.9165 3.14973 16.0109 2.57934 14.4183C2.00975 12.8278 2 11.5122 2 10.2415C2 5.40107 5.82485 1.5 10.4913 1.5C15.159 1.5 19 5.40234 19 10.2415C19 11.5122 18.9903 12.8278 18.4207 14.4183C17.8503 16.0109 16.7033 17.9165 14.3652 20.3041L14.3639 20.3055L10.5 24.2825L6.63616 20.3055Z" fill="#144C4D" stroke="#2F7A7C"/>
<path d="M10.5 8.5C10.9945 8.5 11.4778 8.64662 11.8889 8.92133C12.3 9.19603 12.6205 9.58648 12.8097 10.0433C12.9989 10.5001 13.0484 11.0028 12.952 11.4877C12.8555 11.9727 12.6174 12.4181 12.2678 12.7678C11.9181 13.1174 11.4727 13.3555 10.9877 13.452C10.5028 13.5484 10.0001 13.4989 9.54329 13.3097C9.08648 13.1205 8.69603 12.8 8.42133 12.3889C8.14662 11.9778 8 11.4945 8 11C8 10.337 8.26339 9.70107 8.73223 9.23223C9.20107 8.76339 9.83696 8.5 10.5 8.5V8.5Z" fill="#BFBFBF"/>
</svg>
