<svg width="20" height="14" viewBox="0 0 20 14" fill="none" xmlns="http://www.w3.org/2000/svg">
<rect width="20" height="14" rx="2" fill="#265956"/>
<path d="M7.95305 6.57419C7.60005 6.38819 7.15305 6.21219 6.62005 6.05019C6.13705 5.90719 5.76705 5.77219 5.52005 5.64719C5.29505 5.53419 5.14305 5.41319 5.06705 5.28919C4.99105 5.16219 4.95105 5.00119 4.95105 4.80919C4.95105 4.50719 5.06005 4.28519 5.28505 4.13019C5.53005 3.96219 5.85005 3.87719 6.23905 3.87719C6.55605 3.87719 6.85705 3.93119 7.13305 4.03819C7.41205 4.14519 7.70405 4.31919 7.99805 4.55419L8.14605 4.67219L9.02605 3.69019L8.88405 3.55419C8.50005 3.19619 8.09705 2.92619 7.68505 2.75419C7.27105 2.58019 6.76805 2.49219 6.19205 2.49219C5.66105 2.49219 5.17905 2.59019 4.75905 2.78319C4.33205 2.97819 3.99305 3.25519 3.75205 3.60919C3.51005 3.96419 3.38805 4.37319 3.38805 4.82219C3.38805 5.48619 3.60805 6.02119 4.04105 6.41319C4.45305 6.78719 5.10605 7.10819 5.98005 7.36819C6.44405 7.50319 6.79905 7.63819 7.03805 7.76919C7.25805 7.89019 7.41205 8.02319 7.49605 8.16619C7.58005 8.30719 7.62305 8.49319 7.62305 8.71819C7.62305 9.11819 7.48505 9.41219 7.20205 9.61719C6.90205 9.83419 6.51405 9.94419 6.04805 9.94419C5.65205 9.94419 5.28905 9.87919 4.97105 9.74919C4.64605 9.61619 4.32005 9.41919 4.00105 9.16119L3.85405 9.04119L2.97705 10.0182L3.10905 10.1522C3.87305 10.9322 4.86605 11.3282 6.06005 11.3282C6.69405 11.3282 7.25305 11.2182 7.72205 11.0022C8.19905 10.7822 8.57005 10.4712 8.82605 10.0782C9.08305 9.68319 9.21305 9.22519 9.21305 8.71519C9.21305 8.18919 9.09505 7.74419 8.86105 7.39219C8.63005 7.04519 8.32605 6.77019 7.95305 6.57419Z" fill="#CCCCCC"/>
<path d="M14.2562 2.66016H12.5242L9.74316 11.3282H11.3182L11.9422 9.25216H14.7772L15.4012 11.3282H17.0232L14.2992 2.79916L14.2562 2.66016ZM14.3812 7.92816H12.3382L13.3642 4.50716L14.3812 7.92816Z" fill="#CCCCCC"/>
</svg>
