<svg width="16" height="16" viewBox="0 0 16 16" fill="none" xmlns="http://www.w3.org/2000/svg">
<rect width="16" height="16" rx="2" fill="#265956"/>
<path d="M11.3731 10.2952C10.7631 9.45822 10.1651 8.21322 9.59505 6.59622C9.01105 4.94222 8.28405 3.51322 7.43505 2.34922L7.32505 2.19922L6.10905 2.96722L7.29005 4.88422C6.67905 6.72522 6.00305 8.19222 5.28005 9.24522C4.54705 10.3162 3.58405 11.2932 2.42105 12.1502L2.27905 12.2542L2.98605 13.5402L3.16905 13.4132C5.32505 11.9152 6.99005 9.65422 8.12405 6.68522L8.82105 8.44722C9.80305 10.9512 11.0821 12.6122 12.6211 13.3812L12.7551 13.4482L13.7851 12.3522L13.5561 12.2292C12.7111 11.7762 11.9771 11.1262 11.3731 10.2952Z" fill="#CCCCCC"/>
</svg>
