<svg width="20" height="26" viewBox="0 0 20 26" fill="none" xmlns="http://www.w3.org/2000/svg">
<path d="M6.13616 20.3055L6.13478 20.3041C3.79676 17.9165 2.64973 16.0109 2.07934 14.4183C1.50975 12.8278 1.5 11.5122 1.5 10.2415C1.5 5.40107 5.32485 1.5 9.99133 1.5C14.659 1.5 18.5 5.40234 18.5 10.2415C18.5 11.5122 18.4903 12.8278 17.9207 14.4183C17.3503 16.0109 16.2033 17.9165 13.8652 20.3041L13.8639 20.3055L10 24.2825L6.13616 20.3055Z" fill="#5B72A4" stroke="#7F94C9"/>
<path d="M13.2326 6.85805V6.99805H11.4976V7.99805H13.2326V8.14305C13.2312 8.37027 13.14 8.58773 12.9789 8.74793C12.8178 8.90813 12.5998 8.99805 12.3726 8.99805H10.7326L10.3576 8.24805H6.74756C6.64899 8.1496 6.57079 8.03269 6.51744 7.904C6.46409 7.7753 6.43662 7.63736 6.43662 7.49805C6.43662 7.35873 6.46409 7.22079 6.51744 7.0921C6.57079 6.96341 6.64899 6.84649 6.74756 6.74805H10.3626L10.7326 5.99805H12.3776C12.6048 5.99937 12.8222 6.09056 12.9824 6.2517C13.1426 6.41283 13.2326 6.63082 13.2326 6.85805V6.85805ZM14.7326 11.498C14.8102 11.5563 14.8732 11.6318 14.9166 11.7185C14.96 11.8053 14.9826 11.901 14.9826 11.998C14.9826 12.0951 14.96 12.1908 14.9166 12.2776C14.8732 12.3643 14.8102 12.4398 14.7326 12.498H14.4976V15.498C14.4976 15.6307 14.4449 15.7578 14.3511 15.8516C14.2573 15.9454 14.1302 15.998 13.9976 15.998H12.4976C12.3649 15.998 12.2378 15.9454 12.144 15.8516C12.0502 15.7578 11.9976 15.6307 11.9976 15.498V14.998H7.99756V15.498C7.99756 15.6307 7.94488 15.7578 7.85111 15.8516C7.75734 15.9454 7.63017 15.998 7.49756 15.998H5.99756C5.86495 15.998 5.73777 15.9454 5.64401 15.8516C5.55024 15.7578 5.49756 15.6307 5.49756 15.498V12.498H5.24756C5.16994 12.4398 5.10693 12.3643 5.06354 12.2776C5.02015 12.1908 4.99756 12.0951 4.99756 11.998C4.99756 11.901 5.02015 11.8053 5.06354 11.7185C5.10693 11.6318 5.16994 11.5563 5.24756 11.498H6.11756L6.61756 10.348C6.72325 10.0989 6.89912 9.88595 7.12372 9.73503C7.34833 9.58411 7.61198 9.50177 7.88256 9.49805H12.1126C12.3814 9.50369 12.6429 9.58692 12.8656 9.73772C13.0882 9.88853 13.2626 10.1005 13.3676 10.348L13.8676 11.498H14.7326ZM6.99756 11.998H12.9976L12.4426 10.753C12.4161 10.6826 12.37 10.6211 12.3098 10.5759C12.2495 10.5307 12.1776 10.5037 12.1026 10.498H7.88256C7.80747 10.5037 7.73558 10.5307 7.67534 10.5759C7.6151 10.6211 7.56903 10.6826 7.54256 10.753L6.99756 11.998ZM7.99756 12.998H6.74756C6.66994 13.0563 6.60693 13.1318 6.56354 13.2185C6.52015 13.3053 6.49756 13.401 6.49756 13.498C6.49756 13.5951 6.52015 13.6908 6.56354 13.7776C6.60693 13.8643 6.66994 13.9398 6.74756 13.998H7.99756V12.998ZM13.2476 12.998H11.9976V13.998H13.2476C13.3252 13.9398 13.3882 13.8643 13.4316 13.7776C13.475 13.6908 13.4976 13.5951 13.4976 13.498C13.4976 13.401 13.475 13.3053 13.4316 13.2185C13.3882 13.1318 13.3252 13.0563 13.2476 12.998V12.998Z" fill="#D9D9D9"/>
</svg>
