<svg width="20" height="20" viewBox="0 0 20 20" fill="none" xmlns="http://www.w3.org/2000/svg">
<path d="M10.0003 5.49805C7.99884 8.33154 6.00028 11.1671 3.99902 14.0007H16.0018C14.0005 11.167 12.001 8.3321 10.0003 5.49805Z" fill="#FFFEFB"/>
<path d="M10.8172 4.92132C10.6299 4.65593 10.3253 4.49809 10.0004 4.49805C9.67554 4.498 9.37091 4.65577 9.18349 4.92111C8.15173 6.3818 7.11849 7.84621 6.08543 9.31036C5.11708 10.6828 4.14888 12.055 3.1822 13.4238C2.96666 13.729 2.93923 14.1289 3.11108 14.4606C3.28293 14.7924 3.6254 15.0007 3.99902 15.0007H16.0018C16.3754 15.0007 16.7179 14.7924 16.8897 14.4606C17.0616 14.1289 17.0341 13.729 16.8186 13.4238C15.6313 11.7426 14.4447 10.0613 13.2581 8.37976C12.4446 7.22704 11.6311 6.07423 10.8172 4.92132Z" stroke="#2B2A28" stroke-opacity="0.78" stroke-width="2" stroke-linejoin="round"/>
</svg>
