<svg width="20" height="26" viewBox="0 0 20 26" fill="none" xmlns="http://www.w3.org/2000/svg">
<path d="M6.13616 20.3055L6.13478 20.3041C3.79676 17.9165 2.64973 16.0109 2.07934 14.4183C1.50975 12.8278 1.5 11.5122 1.5 10.2415C1.5 5.40107 5.32485 1.5 9.99133 1.5C14.659 1.5 18.5 5.40234 18.5 10.2415C18.5 11.5122 18.4903 12.8278 17.9207 14.4183C17.3503 16.0109 16.2033 17.9165 13.8652 20.3041L13.8639 20.3055L10 24.2825L6.13616 20.3055Z" fill="#275CAA" stroke="#547DCF"/>
<path d="M10 8.5C10.4945 8.5 10.9778 8.64662 11.3889 8.92133C11.8 9.19603 12.1205 9.58648 12.3097 10.0433C12.4989 10.5001 12.5484 11.0028 12.452 11.4877C12.3555 11.9727 12.1174 12.4181 11.7678 12.7678C11.4181 13.1174 10.9727 13.3555 10.4877 13.452C10.0028 13.5484 9.50011 13.4989 9.04329 13.3097C8.58648 13.1205 8.19603 12.8 7.92133 12.3889C7.64662 11.9778 7.5 11.4945 7.5 11C7.5 10.337 7.76339 9.70107 8.23223 9.23223C8.70107 8.76339 9.33696 8.5 10 8.5V8.5Z" fill="#D9D9D9"/>
</svg>
