<svg width="20" height="26" viewBox="0 0 20 26" fill="none" xmlns="http://www.w3.org/2000/svg">
<path d="M6.13616 20.3055L6.13478 20.3041C3.79676 17.9165 2.64973 16.0109 2.07934 14.4183C1.50975 12.8278 1.5 11.5122 1.5 10.2415C1.5 5.40107 5.32485 1.5 9.99133 1.5C14.659 1.5 18.5 5.40234 18.5 10.2415C18.5 11.5122 18.4903 12.8278 17.9207 14.4183C17.3503 16.0109 16.2033 17.9165 13.8652 20.3041L13.8639 20.3055L10 24.2825L6.13616 20.3055Z" fill="#BF173E" stroke="#E9475E"/>
<path d="M10 6C9.0111 6 8.0444 6.29324 7.22215 6.84265C6.39991 7.39206 5.75904 8.17295 5.3806 9.08658C5.00217 10.0002 4.90315 11.0055 5.09608 11.9755C5.289 12.9454 5.76521 13.8363 6.46447 14.5355C7.16373 15.2348 8.05465 15.711 9.02455 15.9039C9.99446 16.0969 10.9998 15.9978 11.9134 15.6194C12.827 15.241 13.6079 14.6001 14.1573 13.7779C14.7068 12.9556 15 11.9889 15 11C15 10.3434 14.8707 9.69321 14.6194 9.08658C14.3681 8.47995 13.9998 7.92876 13.5355 7.46447C13.0712 7.00017 12.52 6.63188 11.9134 6.3806C11.3068 6.12933 10.6566 6 10 6V6ZM10.705 11L13.155 8.55C13.7024 9.24936 13.9998 10.1119 13.9998 11C13.9998 11.8881 13.7024 12.7506 13.155 13.45L10.705 11ZM12.45 7.845L10 10.295L7.55 7.845C8.24936 7.29761 9.11189 7.0002 10 7.0002C10.8881 7.0002 11.7506 7.29761 12.45 7.845V7.845ZM6.845 8.55L9.295 11L6.845 13.45C6.29761 12.7506 6.0002 11.8881 6.0002 11C6.0002 10.1119 6.29761 9.24936 6.845 8.55V8.55ZM7.55 14.155L10 11.705L12.45 14.155C11.7506 14.7024 10.8881 14.9998 10 14.9998C9.11189 14.9998 8.24936 14.7024 7.55 14.155V14.155Z" fill="#D9D9D9"/>
</svg>
