<svg width="20" height="26" viewBox="0 0 20 26" fill="none" xmlns="http://www.w3.org/2000/svg">
<path d="M6.13616 20.3055L6.13478 20.3041C3.79676 17.9165 2.64973 16.0109 2.07934 14.4183C1.50975 12.8278 1.5 11.5122 1.5 10.2415C1.5 5.40107 5.32485 1.5 9.99133 1.5C14.659 1.5 18.5 5.40234 18.5 10.2415C18.5 11.5122 18.4903 12.8278 17.9207 14.4183C17.3503 16.0109 16.2033 17.9165 13.8652 20.3041L13.8639 20.3055L10 24.2825L6.13616 20.3055Z" fill="#BA4A82" stroke="#E26EA5"/>
<path d="M10 6C9.0111 6 8.0444 6.29324 7.22215 6.84265C6.39991 7.39206 5.75904 8.17295 5.3806 9.08658C5.00217 10.0002 4.90315 11.0055 5.09608 11.9755C5.289 12.9454 5.76521 13.8363 6.46447 14.5355C7.16373 15.2348 8.05465 15.711 9.02455 15.9039C9.99446 16.0969 10.9998 15.9978 11.9134 15.6194C12.827 15.241 13.6079 14.6001 14.1573 13.7779C14.7068 12.9556 15 11.9889 15 11C15 10.3434 14.8707 9.69321 14.6194 9.08658C14.3681 8.47995 13.9998 7.92876 13.5355 7.46447C13.0712 7.00017 12.52 6.63188 11.9134 6.3806C11.3068 6.12933 10.6566 6 10 6V6ZM10 13.945C9.41754 13.945 8.84815 13.7723 8.36385 13.4487C7.87954 13.1251 7.50208 12.6651 7.27918 12.127C7.05628 11.5889 6.99796 10.9967 7.11159 10.4255C7.22522 9.85418 7.50571 9.32944 7.91757 8.91757C8.32944 8.5057 8.85419 8.22522 9.42546 8.11159C9.99673 7.99795 10.5889 8.05627 11.127 8.27917C11.6651 8.50207 12.1251 8.87954 12.4487 9.36385C12.7723 9.84815 12.945 10.4175 12.945 11C12.945 11.3867 12.8688 11.7697 12.7208 12.127C12.5728 12.4843 12.3559 12.809 12.0824 13.0824C11.809 13.3559 11.4843 13.5728 11.127 13.7208C10.7697 13.8688 10.3867 13.945 10 13.945V13.945ZM10.6 10.855C10.776 10.7905 10.9284 10.6744 11.0373 10.5219C11.1461 10.3693 11.2063 10.1874 11.21 10C11.21 9.385 10.655 9.055 10 9.055C9.345 9.055 8.79 9.425 8.79 10.03C8.78724 10.2141 8.83829 10.3949 8.93688 10.5503C9.03548 10.7058 9.17733 10.8291 9.345 10.905C9.14413 10.967 8.96789 11.0907 8.84133 11.2585C8.71477 11.4264 8.64432 11.6298 8.64 11.84C8.64 12.44 9.14 12.905 9.985 12.905C10.83 12.905 11.36 12.43 11.36 11.825C11.348 11.6049 11.2687 11.3938 11.1328 11.2203C10.9968 11.0468 10.8108 10.9193 10.6 10.855V10.855ZM10 9.57C10.0693 9.55995 10.1401 9.5657 10.2069 9.58681C10.2737 9.60793 10.3348 9.64387 10.3858 9.69195C10.4368 9.74003 10.4762 9.79901 10.5012 9.86447C10.5261 9.92993 10.536 10.0002 10.53 10.07C10.5317 10.2019 10.4947 10.3313 10.4236 10.4424C10.3525 10.5535 10.2504 10.6413 10.13 10.695L10.03 10.66C9.67 10.525 9.47 10.39 9.47 10.075C9.46319 10.0048 9.47245 9.93396 9.49706 9.86786C9.52167 9.80176 9.561 9.74213 9.61206 9.69347C9.66313 9.64482 9.72459 9.60842 9.7918 9.58702C9.85901 9.56563 9.93021 9.55981 10 9.57V9.57ZM10 12.405C9.605 12.405 9.35 12.19 9.35 11.835C9.34441 11.6831 9.38361 11.5329 9.46274 11.4031C9.54186 11.2733 9.65741 11.1696 9.795 11.105L9.965 11.165C10.465 11.345 10.645 11.5 10.645 11.845C10.6451 11.926 10.6278 12.0061 10.5942 12.0798C10.5606 12.1536 10.5116 12.2192 10.4504 12.2723C10.3892 12.3254 10.3174 12.3648 10.2396 12.3877C10.1619 12.4106 10.0802 12.4165 10 12.405Z" fill="#D9D9D9"/>
</svg>
