<svg width="20" height="26" viewBox="0 0 20 26" fill="none" xmlns="http://www.w3.org/2000/svg">
<path d="M6.13616 20.3055L6.13478 20.3041C3.79676 17.9165 2.64973 16.0109 2.07934 14.4183C1.50975 12.8278 1.5 11.5122 1.5 10.2415C1.5 5.40107 5.32485 1.5 9.99133 1.5C14.659 1.5 18.5 5.40234 18.5 10.2415C18.5 11.5122 18.4903 12.8278 17.9207 14.4183C17.3503 16.0109 16.2033 17.9165 13.8652 20.3041L13.8639 20.3055L10 24.2825L6.13616 20.3055Z" fill="#5B72A4" stroke="#7F94C9"/>
<path d="M5.00003 8.5V8H15V8.5C14.9982 8.58196 14.9763 8.66222 14.9362 8.73372C14.8961 8.80521 14.839 8.86575 14.77 8.91L10.27 11.72C10.194 11.7639 10.1078 11.787 10.02 11.787C9.93226 11.787 9.84604 11.7639 9.77003 11.72L5.27003 8.91C5.19357 8.87065 5.12854 8.81224 5.08125 8.74042C5.03395 8.6686 5.00598 8.58579 5.00003 8.5V8.5ZM15 9.75L10.545 12.645C10.3828 12.7504 10.1935 12.8066 10 12.8066C9.80656 12.8066 9.61724 12.7504 9.45503 12.645L5.00003 9.75V14.07C4.99936 14.1267 5.01002 14.1829 5.0314 14.2353C5.05277 14.2878 5.08442 14.3355 5.12448 14.3755C5.16454 14.4156 5.21221 14.4473 5.26469 14.4686C5.31716 14.49 5.37338 14.5007 5.43003 14.5H14.57C14.6267 14.5007 14.6829 14.49 14.7354 14.4686C14.7878 14.4473 14.8355 14.4156 14.8756 14.3755C14.9156 14.3355 14.9473 14.2878 14.9687 14.2353C14.99 14.1829 15.0007 14.1267 15 14.07V9.75Z" fill="#D9D9D9"/>
</svg>
