<svg width="20" height="26" viewBox="0 0 20 26" fill="none" xmlns="http://www.w3.org/2000/svg">
<circle cx="10" cy="13" r="8.5" fill="#275CAA" stroke="#547DCF"/>
<path d="M14 8.75C14 8.55109 13.921 8.36032 13.7803 8.21967C13.6397 8.07902 13.4489 8 13.25 8H6.75C6.55109 8 6.36032 8.07902 6.21967 8.21967C6.07902 8.36032 6 8.55109 6 8.75V15.5H8L5.5 18H7L9.25 15.5H10.75L13 18H14.5L12 15.5H14V8.75ZM7 9H9.5V12.5H7V9ZM7.75 14.75C7.55109 14.75 7.36032 14.671 7.21967 14.5303C7.07902 14.3897 7 14.1989 7 14V14C7 13.8011 7.07902 13.6103 7.21967 13.4697C7.36032 13.329 7.55109 13.25 7.75 13.25V13.25C7.94891 13.25 8.13968 13.329 8.28033 13.4697C8.42098 13.6103 8.5 13.8011 8.5 14V14C8.5 14.1989 8.42098 14.3897 8.28033 14.5303C8.13968 14.671 7.94891 14.75 7.75 14.75V14.75ZM13 14C13 14.1989 12.921 14.3897 12.7803 14.5303C12.6397 14.671 12.4489 14.75 12.25 14.75V14.75C12.0511 14.75 11.8603 14.671 11.7197 14.5303C11.579 14.3897 11.5 14.1989 11.5 14V14C11.5 13.8011 11.579 13.6103 11.7197 13.4697C11.8603 13.329 12.0511 13.25 12.25 13.25V13.25C12.4489 13.25 12.6397 13.329 12.7803 13.4697C12.921 13.6103 13 13.8011 13 14V14ZM13 12.5H10.5V9H13V12.5Z" fill="#D9D9D9"/>
</svg>
