<svg width="20" height="26" viewBox="0 0 20 26" fill="none" xmlns="http://www.w3.org/2000/svg">
<path d="M6.13616 20.3055L6.13478 20.3041C3.79676 17.9165 2.64973 16.0109 2.07934 14.4183C1.50975 12.8278 1.5 11.5122 1.5 10.2415C1.5 5.40107 5.32485 1.5 9.99133 1.5C14.659 1.5 18.5 5.40234 18.5 10.2415C18.5 11.5122 18.4903 12.8278 17.9207 14.4183C17.3503 16.0109 16.2033 17.9165 13.8652 20.3041L13.8639 20.3055L10 24.2825L6.13616 20.3055Z" fill="#1B8862" stroke="#48AD84"/>
<path d="M11 16V14.75C11.001 14.6211 10.9753 14.4934 10.9247 14.375C10.874 14.2565 10.7993 14.1497 10.7054 14.0615C10.6115 13.9732 10.5004 13.9053 10.379 13.862C10.2576 13.8187 10.1286 13.801 10 13.81C9.87144 13.801 9.74241 13.8187 9.62101 13.862C9.49962 13.9053 9.38848 13.9732 9.29458 14.0615C9.20068 14.1497 9.12604 14.2565 9.07534 14.375C9.02465 14.4934 8.999 14.6211 9 14.75V16H6.685C6.29901 16.0004 5.92772 15.852 5.64834 15.5857C5.36896 15.3194 5.20301 14.9556 5.185 14.57L5 10.57L7.25 12.665C7.50469 12.8866 7.83246 13.0059 8.17 13H11.67C12.0109 12.9991 12.339 12.8707 12.59 12.64L15 10.545L14.815 14.57C14.797 14.9556 14.631 15.3194 14.3517 15.5857C14.0723 15.852 13.701 16.0004 13.315 16H11ZM7.925 11.905C7.99254 11.9652 8.07955 11.9989 8.17 12H11.67C11.7606 11.9998 11.848 11.966 11.915 11.905V11.905L12.915 11.02H6.915L7.925 11.905ZM15 6.45L13 6V9H10V7.15L11 6.86V6.43L9 6V9H6V7.155L7 6.86V6.43L5 6V9.18L5.88 10H14.1L15 9.225V9H14V7.175L15 6.88V6.45Z" fill="#D9D9D9"/>
</svg>
