<svg width="30" height="30" viewBox="0 0 30 30" fill="none" xmlns="http://www.w3.org/2000/svg">
<circle cx="15" cy="15" r="13" fill="#E1BDBD"/>
<circle cx="15" cy="15" r="10" fill="#EBEBEB"/>
<path d="M11 18.5C11 18.775 10.775 19 10.5 19H9.5C9.225 19 9 18.775 9 18.5V17.5C9 17.225 9.225 17 9.5 17H10.5C10.775 17 11 17.225 11 17.5V18.5Z" fill="#999999"/>
<path d="M12 11V15H11V12H8L7 14V18H8V17H9V16H11V17H12V18H17V17H18V16H20V17H21V18H22V11H12ZM10 15H7.578L8.516 13H10V15Z" fill="#999999"/>
<path d="M20 18.5C20 18.775 19.775 19 19.5 19H18.5C18.225 19 18 18.775 18 18.5V17.5C18 17.225 18.225 17 18.5 17H19.5C19.775 17 20 17.225 20 17.5V18.5Z" fill="#999999"/>
<path d="M7.09006 24.4124L24.4126 7.08984L22.7354 5.4126L5.41282 22.7351L7.09006 24.4124Z" fill="#E1BDBD"/>
</svg>
