<svg width="30" height="30" viewBox="0 0 30 30" fill="none" xmlns="http://www.w3.org/2000/svg">
<path d="M14.9996 1L29 15.0004L15.0004 29L1 14.9996L14.9996 1Z" fill="#999999"/>
<path d="M27.5 15L15 27.5L2.5 15L15 2.5L27.5 15Z" fill="#CCBAA9"/>
<path d="M17.066 13.217C16.876 14.184 16.179 14.785 15.587 15.045C15.582 15.051 15.996 14.269 15.962 13.208C15.919 11.892 15.047 10.713 13.91 10.179C14.008 10.506 14.064 10.852 14.064 11.21C14.064 12.162 13.69 13.031 13.076 13.665C12.314 14.452 11.972 15.18 12.002 16.019C12.092 18.488 14.268 18.984 14.332 18.998C13.931 18.764 13.659 18.312 13.659 17.801C13.659 16.578 14.972 15.649 14.972 15.649C14.972 15.649 16.285 16.596 16.285 17.801C16.285 18.315 16.015 18.759 15.618 18.995C16.383 18.816 16.972 18.414 17.4 17.766C17.412 17.746 17.99 16.86 17.99 15.698C17.99 14.716 17.641 13.832 17.066 13.217ZM15 5L14.09 8.979C14.516 8.765 15.438 8.781 15.91 8.979L15 5ZM14.24 21.021L15 25L15.76 21.021C15.281 21.172 14.688 21.203 14.24 21.021ZM11 12C10.779 12.6 10.619 13.28 10.55 13.99L8 12H11ZM11 18H8L10.555 16.01C10.624 16.721 10.779 17.4 11 18ZM22 12L19.45 14C19.38 13.28 19.221 12.61 19 12H22ZM22 18H19C19.221 17.391 19.38 16.721 19.45 16L22 18Z" fill="#999999"/>
</svg>
