<svg width="30" height="30" viewBox="0 0 30 30" fill="none" xmlns="http://www.w3.org/2000/svg">
<path d="M14.9996 1L29 15.0004L15.0004 29L1 14.9996L14.9996 1Z" fill="#999999"/>
<path d="M27.5 15L15 27.5L2.5 15L15 2.5L27.5 15Z" fill="#CCBAA9"/>
<path d="M14.9998 9C12.2398 9 10.0098 11.24 10.0098 14C10.0098 15.63 10.7998 17.09 11.9998 18V20.42C12.0158 21.219 12.9998 20.981 12.9998 20.981V19C12.9998 18.721 13.2198 18.5 13.4998 18.5C13.7798 18.5 13.9998 18.721 13.9998 19V21H15.9998V19C15.9998 18.721 16.2208 18.5 16.4998 18.5C16.7788 18.5 16.9998 18.721 16.9998 19V20.98C16.9998 20.98 17.9838 21.187 17.9998 20.417V18C19.1998 17.09 19.9998 15.63 19.9998 14C19.9998 11.24 17.7598 9 14.9998 9ZM13.4998 16H12.4998C12.2198 16 11.9998 15.779 11.9998 15.5V14.5C11.9998 14.22 12.2198 14 12.4998 14H13.4998C13.7798 14 13.9998 14.22 13.9998 14.5V15.5C13.9998 15.779 13.7798 16 13.4998 16ZM17.9998 15.5C17.9998 15.779 17.7788 16 17.4998 16H16.4998C16.2208 16 15.9998 15.779 15.9998 15.5V14.5C15.9998 14.22 16.2208 14 16.4998 14H17.4998C17.7788 14 17.9998 14.22 17.9998 14.5V15.5Z" fill="#999999"/>
</svg>
