<svg width="30" height="30" viewBox="0 0 30 30" fill="none" xmlns="http://www.w3.org/2000/svg">
<path d="M14.9996 1L29 15.0004L15.0004 29L1 14.9996L14.9996 1Z" fill="#333333"/>
<path d="M27.5 15L15 27.5L2.5 15L15 2.5L27.5 15Z" fill="white"/>
<path d="M27.5 15L15 27.5L2.5 15H27.5Z" fill="#FB1858"/>
<path d="M18.4432 12.358C18.1252 13.968 16.9642 14.971 15.9762 15.405C15.9652 15.416 16.6592 14.111 16.6012 12.342C16.5292 10.148 15.0752 8.18202 13.1812 7.29102C13.3432 7.83702 13.4372 8.41302 13.4372 9.01102C13.4372 10.599 12.8142 12.047 11.7912 13.104C10.5212 14.417 9.9492 15.631 10.0002 17.029C10.1482 21.148 13.7772 21.974 13.8852 22C13.2152 21.607 12.7632 20.859 12.7632 20.003C12.7632 17.965 14.9522 16.413 14.9522 16.413C14.9522 16.413 17.1402 17.993 17.1402 20.003C17.1402 20.857 16.6912 21.602 16.0292 21.995C17.3022 21.7 18.2872 21.025 19.0002 19.947C19.0202 19.916 20.0002 18.437 20.0002 16.497C20.0002 14.857 19.3982 13.384 18.4432 12.358Z" fill="#333333"/>
</svg>
