<svg width="30" height="30" viewBox="0 0 30 30" fill="none" xmlns="http://www.w3.org/2000/svg">
<path d="M14.9996 1L29 15.0004L15.0004 29L1 14.9996L14.9996 1Z" fill="#999999"/>
<path d="M27.5 15L15 27.5L2.5 15L15 2.5L27.5 15Z" fill="#D8D0A4"/>
<path d="M18.29 11.02C18.246 11.344 18.281 12.047 17.666 12.797C17.236 12.51 17.15 12.47 16.6 12.29C16.67 10.019 15.08 7.89 13.181 7C13.351 7.55 13.442 8.12 13.442 8.72C13.442 10.31 12.822 11.76 11.792 12.81C10.52 14.12 10 15.34 10 16.74C10 19.89 12.24 22 15 22C18.23 22 20 19.811 20 16.21C20 14.56 19.422 12.141 18.29 11.02ZM15 20.675C12.97 20.675 11.325 19.029 11.325 17C11.325 14.969 12.97 13.325 15 13.325C17.029 13.325 18.675 14.969 18.675 17C18.675 19.029 17.029 20.675 15 20.675Z" fill="#999999"/>
</svg>
