<svg width="30" height="30" viewBox="0 0 30 30" fill="none" xmlns="http://www.w3.org/2000/svg">
<path d="M15 1L1 15L15 29L29 15L15 1Z" fill="#999999"/>
<path d="M27.5 15L14.9994 27.5L2.5 15L14.9994 2.5L27.5 15Z" fill="#DBDCA7"/>
<path d="M15.0006 1L18.0007 4.00178L15.0011 6.99974L12.001 3.99796L15.0006 1Z" fill="#999999"/>
<path d="M15 20.5C15.8284 20.5 16.5 19.8284 16.5 19C16.5 18.1716 15.8284 17.5 15 17.5C14.1716 17.5 13.5 18.1716 13.5 19C13.5 19.8284 14.1716 20.5 15 20.5Z" fill="#999999"/>
<path d="M18 18.5H12V19.5H18V18.5Z" fill="#999999"/>
<path d="M20 20.5C20 20.775 19.775 21 19.5 21H18.5C18.225 21 18 20.775 18 20.5V17.5C18 17.225 18.225 17 18.5 17H19.5C19.775 17 20 17.225 20 17.5V20.5Z" fill="#999999"/>
<path d="M12 20.5C12 20.775 11.775 21 11.5 21H10.5C10.225 21 10 20.775 10 20.5V17.5C10 17.225 10.225 17 10.5 17H11.5C11.775 17 12 17.225 12 17.5V20.5Z" fill="#999999"/>
</svg>
