<svg width="32" height="34" viewBox="0 0 32 34" fill="none" xmlns="http://www.w3.org/2000/svg">
<path d="M3.3402 11.2976L11.5421 3.29959C14.0027 0.900134 17.9973 0.900136 20.4579 3.2996L28.6598 11.2976C31.1134 13.6902 31.1134 17.564 28.6598 19.9566L16 32.3016L3.3402 19.9566C0.8866 17.564 0.886601 13.6902 3.3402 11.2976Z" fill="#333B47" stroke="#B3B3B3"/>
<path fill-rule="evenodd" clip-rule="evenodd" d="M11.4174 10.971C11.7788 10.3686 12.4299 10 13.1324 10H16.8676C17.5701 10 18.2212 10.3686 18.5826 10.971L19.8 13H18.2L17.3 11.5H12.8L11.3 14H16.4444L14.5 17.5H13L12.2969 18.5547C12.1114 18.8329 11.7992 19 11.4648 19H10C9.44772 19 9 18.5523 9 18V15.554C9 15.1915 9.09852 14.8358 9.28501 14.525L11.4174 10.971ZM13 16C13 16.5523 12.5523 17 12 17C11.4477 17 11 16.5523 11 16C11 15.4477 11.4477 15 12 15C12.5523 15 13 15.4477 13 16Z" fill="#CCCCCC"/>
<path fill-rule="evenodd" clip-rule="evenodd" d="M17.1259 14.5734C17.5069 13.8876 18.4932 13.8876 18.8742 14.5734L22.1747 20.5143C22.545 21.1808 22.063 22 21.3005 22H14.6996C13.9371 22 13.4551 21.1808 13.8254 20.5143L17.1259 14.5734ZM15.5493 20.5L18 16.0886L20.4508 20.5H15.5493Z" fill="#CCCCCC"/>
</svg>
