<svg width="20" height="26" viewBox="0 0 20 26" fill="none" xmlns="http://www.w3.org/2000/svg">
<path d="M10 24.2825L6.13616 20.3055L6.13478 20.3041C3.79676 17.9165 2.64973 16.0109 2.07934 14.4183C1.50975 12.8278 1.5 11.5122 1.5 10.2415C1.5 5.40107 5.32485 1.5 9.99133 1.5C14.659 1.5 18.5 5.40234 18.5 10.2415C18.5 11.5122 18.4903 12.8278 17.9207 14.4183C17.3503 16.0109 16.2033 17.9165 13.8652 20.3041L13.8639 20.3055L10 24.2825Z" fill="#45BF94" stroke="#2E9874"/>
<path fill-rule="evenodd" clip-rule="evenodd" d="M8.12489 15.7634C8.87544 14.7729 8.94843 13.6074 8.80913 12.8376C9.39409 12.8609 10.2384 12.8267 11.1312 12.5653C11.1818 13.2409 11.5284 15.021 11.8749 15.021C12.5331 15.021 13.4799 13.0205 13.702 11.2764C12.8708 11.2041 12.1339 11.0096 11.5036 10.6587C10.6702 10.1947 10.0546 9.47481 9.65173 8.4781L10.3481 8.20241C10.6953 9.06147 11.2046 9.64058 11.8713 10.0117C12.4243 10.3196 13.1065 10.496 13.9332 10.5495C14.4888 9.45203 14.494 7.93719 14.4977 6.85224C14.4981 6.72308 14.4986 6.60002 14.4999 6.48448H13.7499V5.74217C13.5115 5.74468 13.2658 5.73518 13.0135 5.72543C11.8089 5.6789 10.4548 5.62659 9.04616 6.84679C9.03156 6.86027 9.0171 6.8738 9.00279 6.88738C7.98118 7.10638 5.49988 8.40432 5.49989 9.08257C5.49989 9.42609 7.10165 9.76962 7.6416 9.81886C7.57367 10.546 7.64707 11.2288 7.74565 11.753C6.96868 11.6056 5.76784 11.6673 4.75 12.423C4.74996 12.6037 5.25843 12.6715 5.83566 12.7485C6.44388 12.8297 7.12842 12.921 7.37488 13.1653C7.6212 13.4094 7.71353 14.0864 7.79559 14.6881C7.87355 15.2597 7.94224 15.7634 8.12489 15.7634ZM12.2499 7.78352C12.2499 8.091 11.9981 8.34025 11.6874 8.34025C11.3768 8.34025 11.1249 8.091 11.1249 7.78352C11.1249 7.47605 11.3768 7.22679 11.6874 7.22679C11.9981 7.22679 12.2499 7.47605 12.2499 7.78352Z" fill="white"/>
</svg>
