<svg width="20" height="26" viewBox="0 0 20 26" fill="none" xmlns="http://www.w3.org/2000/svg">
<path d="M6.13616 20.3055L6.13478 20.3041C3.79676 17.9165 2.64973 16.0109 2.07934 14.4183C1.50975 12.8278 1.5 11.5122 1.5 10.2415C1.5 5.40107 5.32485 1.5 9.99133 1.5C14.659 1.5 18.5 5.40234 18.5 10.2415C18.5 11.5122 18.4903 12.8278 17.9207 14.4183C17.3503 16.0109 16.2033 17.9165 13.8652 20.3041L13.8639 20.3055L10 24.2825L6.13616 20.3055Z" fill="#A0B1DA" stroke="#818DAB"/>
<path d="M8.875 9.875H11.125V10.625H8.875V9.875ZM15 7.5V8.5C15 8.89782 14.842 9.27936 14.5607 9.56066C14.2794 9.84196 13.8978 10 13.5 10H13V16H7V10H6.5C6.10218 10 5.72064 9.84196 5.43934 9.56066C5.15804 9.27936 5 8.89782 5 8.5V7.5C5 7.10218 5.15804 6.72064 5.43934 6.43934C5.72064 6.15804 6.10218 6 6.5 6H13.5C13.8978 6 14.2794 6.15804 14.5607 6.43934C14.842 6.72064 15 7.10218 15 7.5ZM12 13H8V13.5L9 14.5H9.5V14H12V13ZM12 9.5C12 9.36739 11.9473 9.24021 11.8536 9.14645C11.7598 9.05268 11.6326 9 11.5 9H8.5C8.36739 9 8.24021 9.05268 8.14645 9.14645C8.05268 9.24021 8 9.36739 8 9.5V11C8 11.1326 8.05268 11.2598 8.14645 11.3536C8.24021 11.4473 8.36739 11.5 8.5 11.5H11.5C11.6326 11.5 11.7598 11.4473 11.8536 11.3536C11.9473 11.2598 12 11.1326 12 11V9.5ZM14 7H6V9H7V8H13V9H14V7Z" fill="white"/>
</svg>
