<svg width="20" height="26" viewBox="0 0 20 26" fill="none" xmlns="http://www.w3.org/2000/svg">
<path d="M6.13616 20.3055L6.13478 20.3041C3.79676 17.9165 2.64973 16.0109 2.07934 14.4183C1.50975 12.8278 1.5 11.5122 1.5 10.2415C1.5 5.40107 5.32485 1.5 9.99133 1.5C14.659 1.5 18.5 5.40234 18.5 10.2415C18.5 11.5122 18.4903 12.8278 17.9207 14.4183C17.3503 16.0109 16.2033 17.9165 13.8652 20.3041L13.8639 20.3055L10 24.2825L6.13616 20.3055Z" fill="#A0B1DA" stroke="#818DAB"/>
<path d="M10.9999 14.435V16H9.4999V14.56C8.71185 14.5045 7.96844 14.1735 7.3999 13.625L8.0899 12.855C8.58691 13.3057 9.23394 13.5553 9.9049 13.555C10.6549 13.555 11.1949 13.19 11.1949 12.505C11.1949 11.915 10.8999 11.65 9.7999 11.315C8.3249 10.86 7.6849 10.27 7.6849 9.2C7.6849 8.13 8.4249 7.5 9.4999 7.32V6H10.9999V7.375C11.5219 7.49747 12.0028 7.75429 12.3949 8.12L11.7349 8.885C11.3012 8.49877 10.7407 8.28526 10.1599 8.285C9.5249 8.285 9.0699 8.57 9.0699 9.12C9.0699 9.67 9.3449 9.85 10.5149 10.22C11.6849 10.59 12.5999 11.115 12.5999 12.435C12.6017 12.901 12.444 13.3535 12.1529 13.7174C11.8618 14.0813 11.4549 14.3345 10.9999 14.435Z" fill="white"/>
</svg>
