<svg width="20" height="26" viewBox="0 0 20 26" fill="none" xmlns="http://www.w3.org/2000/svg">
<path d="M6.13616 20.3055L6.13478 20.3041C3.79676 17.9165 2.64973 16.0109 2.07934 14.4183C1.50975 12.8278 1.5 11.5122 1.5 10.2415C1.5 5.40107 5.32485 1.5 9.99133 1.5C14.659 1.5 18.5 5.40234 18.5 10.2415C18.5 11.5122 18.4903 12.8278 17.9207 14.4183C17.3503 16.0109 16.2033 17.9165 13.8652 20.3041L13.8639 20.3055L10 24.2825L6.13616 20.3055Z" fill="#C19D95" stroke="#937D78"/>
<path d="M7.5 6V7.5L6 8V8.5H12V7.385C12.0019 7.14008 11.9139 6.90298 11.7526 6.71866C11.5913 6.53433 11.368 6.41561 11.125 6.385L7.5 6ZM14.295 14.815L14.47 16H10.025L13.145 13C13.4515 13.2068 13.7119 13.4748 13.9099 13.7872C14.1078 14.0996 14.2389 14.4495 14.295 14.815V14.815ZM8.17 16H5.5L5.675 14.815C5.78725 14.1587 6.13089 13.5644 6.64364 13.1397C7.15639 12.715 7.80432 12.4881 8.47 12.5H11.5C11.6004 12.5032 11.7005 12.5115 11.8 12.525L8.17 16ZM12 9.25V9.28C12 10.34 11.5 10.5 11.5 11.5H8.25C8.25 10.695 7.5 10.545 7.5 9.75V9.25H12Z" fill="white"/>
</svg>
