<svg width="20" height="26" viewBox="0 0 20 26" fill="none" xmlns="http://www.w3.org/2000/svg">
<circle cx="10" cy="13" r="8.5" fill="#5990E2" stroke="#3B6EB3"/>
<path d="M13.755 8.00003C13.6556 7.99933 13.5565 8.01109 13.46 8.03503L6.655 9.64503C6.32618 9.72274 6.03323 9.90919 5.8236 10.1742C5.61398 10.4392 5.49995 10.7672 5.5 11.105V16L15 13.75V9.25003C15 8.91937 14.869 8.60219 14.6357 8.36791C14.4023 8.13363 14.0857 8.00135 13.755 8.00003V8.00003ZM9.875 12.5L6.5 13.29V11.16C6.50076 11.017 6.55095 10.8786 6.64208 10.7683C6.73321 10.6581 6.85966 10.5827 7 10.555L9.895 9.86503L9.875 12.5ZM14 11.5L10.625 12.305V9.68503L13.54 9.00003H13.63C13.7286 9.00134 13.8227 9.04143 13.8919 9.11162C13.9612 9.1818 14 9.27643 14 9.37503V11.5ZM5 17.94L15 15.57V14.82L5 17.19V17.94Z" fill="white"/>
</svg>
