<svg width="20" height="26" viewBox="0 0 20 26" fill="none" xmlns="http://www.w3.org/2000/svg">
<circle cx="10" cy="13" r="8.5" fill="#5990E2" stroke="#3B6EB3"/>
<path d="M10 10.885C9.325 10.885 8.25 11.06 8.25 12.25V13.165H11.75V12.25C11.75 11.06 10.68 10.885 10 10.885ZM9.61 16.25L8.5 18H11.5L10.37 16.25H9.61ZM11.5 15.5C11.6658 15.5 11.8247 15.4342 11.9419 15.3169C12.0592 15.1997 12.125 15.0408 12.125 14.875V14.875C12.125 14.7092 12.0592 14.5503 11.9419 14.4331C11.8247 14.3158 11.6658 14.25 11.5 14.25V14.25C11.3342 14.25 11.1753 14.3158 11.0581 14.4331C10.9408 14.5503 10.875 14.7092 10.875 14.875V14.875C10.875 15.0408 10.9408 15.1997 11.0581 15.3169C11.1753 15.4342 11.3342 15.5 11.5 15.5V15.5ZM8.5 15.5C8.58208 15.5 8.66335 15.4838 8.73918 15.4524C8.81501 15.421 8.8839 15.375 8.94194 15.3169C8.99998 15.2589 9.04601 15.19 9.07742 15.1142C9.10883 15.0383 9.125 14.9571 9.125 14.875V14.875C9.125 14.7929 9.10883 14.7117 9.07742 14.6358C9.04601 14.56 8.99998 14.4911 8.94194 14.4331C8.8839 14.375 8.81501 14.329 8.73918 14.2976C8.66335 14.2662 8.58208 14.25 8.5 14.25V14.25C8.33424 14.25 8.17527 14.3158 8.05806 14.4331C7.94085 14.5503 7.875 14.7092 7.875 14.875V14.875C7.875 15.0408 7.94085 15.1997 8.05806 15.3169C8.17527 15.4342 8.33424 15.5 8.5 15.5V15.5ZM10 8C6.825 8 5 9.54 5 12.23V18H7L8.295 16.25H7.5C7.36739 16.25 7.24021 16.1973 7.14645 16.1036C7.05268 16.0098 7 15.8826 7 15.75V12.185C7 10.685 8.15 9.75 10 9.75C11.85 9.75 13 10.68 13 12.185V15.75C13 15.8826 12.9473 16.0098 12.8536 16.1036C12.7598 16.1973 12.6326 16.25 12.5 16.25H11.675L13 18H15V12.23C15 9.54 13.175 8 10 8Z" fill="white"/>
</svg>
