<svg width="20" height="26" viewBox="0 0 20 26" fill="none" xmlns="http://www.w3.org/2000/svg">
<circle cx="10" cy="13" r="8.5" fill="#5990E2" stroke="#3B6EB3"/>
<path d="M14.5651 10.39C14.5373 10.0115 14.3671 9.65769 14.0887 9.39976C13.8104 9.14183 13.4446 8.99898 13.0651 9H12.5001C12.2673 8.68951 11.9653 8.4375 11.6182 8.26393C11.271 8.09036 10.8882 8 10.5001 8H9.50012C9.11201 8 8.72922 8.09036 8.38209 8.26393C8.03495 8.4375 7.73299 8.68951 7.50012 9H6.93012C6.55064 8.99898 6.18488 9.14183 5.90653 9.39976C5.62818 9.65769 5.45795 10.0115 5.43012 10.39L5.21012 13.315C5.17266 13.8903 5.33517 14.4608 5.67012 14.93L5.83512 16.25C5.89634 16.736 6.13378 17.1826 6.50243 17.5052C6.87108 17.8278 7.34529 18.0038 7.83512 18H12.1851C12.675 18.0038 13.1492 17.8278 13.5178 17.5052C13.8865 17.1826 14.1239 16.736 14.1851 16.25L14.3501 14.93C14.6851 14.4608 14.8476 13.8903 14.8101 13.315L14.5651 10.39ZM13.1701 16.125C13.1395 16.368 13.0208 16.5913 12.8365 16.7526C12.6521 16.9139 12.415 17.0019 12.1701 17H7.82512C7.5802 17.0019 7.3431 16.9139 7.15878 16.7526C6.97445 16.5913 6.85573 16.368 6.82512 16.125L6.79012 15.82C7.08316 15.9359 7.39501 15.9969 7.71012 16H12.2901C12.6035 15.9963 12.9136 15.9353 13.2051 15.82L13.1701 16.125ZM13.3901 14.5C13.2515 14.6551 13.0821 14.7796 12.8927 14.8657C12.7033 14.9517 12.4981 14.9975 12.2901 15H7.71012C7.50353 15.0006 7.29905 14.9584 7.1095 14.8763C6.91995 14.7941 6.74942 14.6737 6.60859 14.5225C6.46776 14.3714 6.35968 14.1927 6.29111 13.9979C6.22254 13.803 6.19497 13.596 6.21012 13.39L6.42512 10.465C6.43399 10.3385 6.49056 10.2202 6.58339 10.1339C6.67621 10.0475 6.79836 9.99969 6.92512 10H7.05012C7.01814 10.1648 7.00141 10.3322 7.00012 10.5V11H8.00012V10.5C8.00012 10.1022 8.15815 9.72064 8.43946 9.43934C8.72076 9.15804 9.10229 9 9.50012 9H10.5001C10.8979 9 11.2795 9.15804 11.5608 9.43934C11.8421 9.72064 12.0001 10.1022 12.0001 10.5V11H13.0001V10.5C12.9988 10.3322 12.9821 10.1648 12.9501 10H13.0701C13.1969 9.99969 13.319 10.0475 13.4119 10.1339C13.5047 10.2202 13.5612 10.3385 13.5701 10.465L13.7851 13.39C13.7976 13.5921 13.769 13.7946 13.7012 13.9854C13.6333 14.1762 13.5275 14.3512 13.3901 14.5V14.5ZM9.50012 13H8.00012V12H9.50012V13ZM12.0001 13H10.5001V12H12.0001V13ZM11.0001 11H9.00012V10H11.0001V11Z" fill="white"/>
</svg>
