<svg width="20" height="26" viewBox="0 0 20 26" fill="none" xmlns="http://www.w3.org/2000/svg">
<circle cx="10" cy="13" r="8.5" fill="#5990E2" stroke="#3B6EB3"/>
<path d="M12.155 15.5C12.3598 15.5004 12.5625 15.4588 12.7506 15.3779C12.9387 15.2969 13.1083 15.1783 13.2488 15.0293C13.3893 14.8804 13.4979 14.7042 13.5677 14.5117C13.6376 14.3192 13.6673 14.1144 13.655 13.91L13.335 9.41C13.312 9.02798 13.1439 8.66918 12.8651 8.40706C12.5862 8.14494 12.2177 7.99931 11.835 8H8.16C7.77729 7.99931 7.40879 8.14494 7.12993 8.40706C6.85108 8.66918 6.68296 9.02798 6.66 9.41L6.34 13.91C6.32771 14.1144 6.35741 14.3192 6.42727 14.5117C6.49713 14.7042 6.60568 14.8804 6.74621 15.0293C6.88674 15.1783 7.05628 15.2969 7.2444 15.3779C7.43251 15.4588 7.63521 15.5004 7.84 15.5H8L5.5 18H7L9.25 15.5H10.75L13 18H14.5L12 15.5H12.155ZM8.75 14.25H7.855C7.78674 14.2501 7.71917 14.2363 7.65647 14.2093C7.59376 14.1823 7.53725 14.1428 7.4904 14.0931C7.44356 14.0435 7.40738 13.9847 7.38409 13.9206C7.3608 13.8564 7.3509 13.7881 7.355 13.72V13.47C7.36265 13.3427 7.41869 13.2231 7.51164 13.1357C7.6046 13.0483 7.72743 12.9998 7.855 13H8.75V14.25ZM7.5 11.75L7.645 9.5C7.65109 9.36936 7.70572 9.24568 7.7982 9.1532C7.89068 9.06072 8.01435 9.00609 8.145 9H11.805C11.94 8.99985 12.0699 9.05172 12.1677 9.14483C12.2654 9.23794 12.3236 9.36514 12.33 9.5L12.5 11.75H7.5ZM11.25 14.25V13H12.125C12.2526 12.9998 12.3754 13.0483 12.4684 13.1357C12.5613 13.2231 12.6173 13.3427 12.625 13.47V13.72C12.6291 13.7881 12.6192 13.8564 12.5959 13.9206C12.5726 13.9847 12.5364 14.0435 12.4896 14.0931C12.4428 14.1428 12.3862 14.1823 12.3235 14.2093C12.2608 14.2363 12.1933 14.2501 12.125 14.25H11.25Z" fill="white"/>
</svg>
