<svg width="20" height="26" viewBox="0 0 20 26" fill="none" xmlns="http://www.w3.org/2000/svg">
<path d="M6.13616 20.3055L6.13478 20.3041C3.79676 17.9165 2.64973 16.0109 2.07934 14.4183C1.50975 12.8278 1.5 11.5122 1.5 10.2415C1.5 5.40107 5.32485 1.5 9.99133 1.5C14.659 1.5 18.5 5.40234 18.5 10.2415C18.5 11.5122 18.4903 12.8278 17.9207 14.4183C17.3503 16.0109 16.2033 17.9165 13.8652 20.3041L13.8639 20.3055L10 24.2825L6.13616 20.3055Z" fill="#45BF94" stroke="#2E9874"/>
<path d="M15 11.725V12.725C14.815 12.725 14.74 12.785 14.555 12.965C14.41 13.1228 14.2338 13.2488 14.0376 13.3349C13.8413 13.421 13.6293 13.4653 13.415 13.465C13.2003 13.4681 12.9874 13.4251 12.7907 13.3388C12.594 13.2526 12.4181 13.1251 12.275 12.965C12.09 12.785 12.015 12.725 11.83 12.725C11.645 12.725 11.57 12.785 11.385 12.965C11.2442 13.1288 11.0696 13.2603 10.8733 13.3504C10.677 13.4405 10.4635 13.4872 10.2475 13.4872C10.0315 13.4872 9.818 13.4405 9.62168 13.3504C9.42536 13.2603 9.25082 13.1288 9.11 12.965C8.92 12.785 8.85 12.725 8.665 12.725C8.48 12.725 8.405 12.785 8.22 12.965C8.07918 13.1288 7.90464 13.2603 7.70832 13.3504C7.512 13.4405 7.29852 13.4872 7.0825 13.4872C6.86648 13.4872 6.653 13.4405 6.45668 13.3504C6.26036 13.2603 6.08582 13.1288 5.945 12.965C5.76 12.785 5.685 12.725 5.5 12.725V11.725C5.71351 11.7251 5.92467 11.7696 6.12006 11.8557C6.31545 11.9418 6.49081 12.0675 6.635 12.225C6.825 12.405 6.895 12.465 7.08 12.465C7.265 12.465 7.34 12.405 7.525 12.225C7.67243 12.079 7.84098 11.9559 8.025 11.86V8C8.02504 7.86655 7.99837 7.73444 7.94656 7.61145C7.89475 7.48847 7.81885 7.3771 7.72332 7.28391C7.6278 7.19071 7.51459 7.11758 7.39037 7.06882C7.26614 7.02006 7.13341 6.99666 7 7H6.5V6H10.5C11.0304 6 11.5391 6.21071 11.9142 6.58579C12.2893 6.96086 12.5 7.46957 12.5 8V11.885C12.6712 11.9824 12.8278 12.1036 12.965 12.245C13.155 12.425 13.23 12.485 13.415 12.485C13.6 12.485 13.675 12.425 13.86 12.245C14.003 12.0833 14.1783 11.9534 14.3747 11.8638C14.5711 11.7742 14.7841 11.7269 15 11.725V11.725ZM15 15.225V14.225C14.815 14.225 14.74 14.285 14.555 14.465C14.41 14.6228 14.2338 14.7488 14.0376 14.8349C13.8413 14.921 13.6293 14.9653 13.415 14.965C13.2003 14.9681 12.9874 14.9251 12.7907 14.8388C12.594 14.7526 12.4181 14.6251 12.275 14.465C12.09 14.285 12.015 14.225 11.83 14.225C11.645 14.225 11.57 14.285 11.385 14.465C11.2442 14.6288 11.0696 14.7603 10.8733 14.8504C10.677 14.9405 10.4635 14.9872 10.2475 14.9872C10.0315 14.9872 9.818 14.9405 9.62168 14.8504C9.42536 14.7603 9.25082 14.6288 9.11 14.465C8.92 14.285 8.85 14.225 8.665 14.225C8.48 14.225 8.405 14.285 8.22 14.465C8.07918 14.6288 7.90464 14.7603 7.70832 14.8504C7.512 14.9405 7.29852 14.9872 7.0825 14.9872C6.86648 14.9872 6.653 14.9405 6.45668 14.8504C6.26036 14.7603 6.08582 14.6288 5.945 14.465C5.76 14.285 5.685 14.225 5.5 14.225V15.41C5.93794 15.7913 6.4993 16.001 7.08 16C7.66041 16.0059 8.22336 15.8017 8.665 15.425C9.10393 15.8029 9.66584 16.0074 10.245 16C10.8254 16.0059 11.3884 15.8017 11.83 15.425C12.2744 15.7969 12.8355 16.0006 13.415 16.0006C13.9945 16.0006 14.5555 15.7969 15 15.425V15.225Z" fill="white"/>
</svg>
