<svg width="20" height="26" viewBox="0 0 20 26" fill="none" xmlns="http://www.w3.org/2000/svg">
<path d="M6.13616 20.3055L6.13478 20.3041C3.79676 17.9165 2.64973 16.0109 2.07934 14.4183C1.50975 12.8278 1.5 11.5122 1.5 10.2415C1.5 5.40107 5.32485 1.5 9.99133 1.5C14.659 1.5 18.5 5.40234 18.5 10.2415C18.5 11.5122 18.4903 12.8278 17.9207 14.4183C17.3503 16.0109 16.2033 17.9165 13.8652 20.3041L13.8639 20.3055L10 24.2825L6.13616 20.3055Z" fill="#667284" stroke="#4B515A"/>
<path fill-rule="evenodd" clip-rule="evenodd" d="M4.75 6.6875C4.75 6.16973 5.16973 5.75 5.6875 5.75H10.75C11.2036 5.75 11.5819 6.07208 11.6687 6.5H12.8497C13.4016 6.5 13.8945 6.84528 14.0832 7.36396L14.549 8.64516C14.9602 8.81259 15.25 9.2162 15.25 9.6875V11.375H14.5C14.5 11.9963 13.9963 12.5 13.375 12.5C12.7537 12.5 12.25 11.9963 12.25 11.375H10.375C10.375 11.9963 9.87132 12.5 9.25 12.5C8.62868 12.5 8.125 11.9963 8.125 11.375H7.75C7.75 11.9963 7.24632 12.5 6.625 12.5C6.00368 12.5 5.5 11.9963 5.5 11.375H4.75V6.6875ZM5.5 6.875V9.875H10.5625V6.875H5.5ZM11.6875 9.125H13.5265L13.0259 7.74842C12.9989 7.67432 12.9285 7.625 12.8497 7.625H11.6875V9.125Z" fill="white"/>
<path d="M4.75 13.25H15.25V14H13.1875V14.75H14.5L12.625 16.25L10.75 14.75H12.0625V14H7.9375V14.75H9.25L7.375 16.25L5.5 14.75H6.8125V14H4.75V13.25Z" fill="white"/>
</svg>
