<svg width="20" height="20" viewBox="0 0 20 20" fill="none" xmlns="http://www.w3.org/2000/svg">
<circle cx="10" cy="10" r="8.5" fill="#FFBD09" stroke="#333B47"/>
<path fill-rule="evenodd" clip-rule="evenodd" d="M8 7.625C8 7.00368 8.53726 6.5 9.2 6.5H10.8C11.4627 6.5 12 7.00368 12 7.625V14.375C12 14.9963 11.4627 15.5 10.8 15.5H9.2C8.53726 15.5 8 14.9963 8 14.375V7.625ZM10 9.5C10.5523 9.5 11 9.05228 11 8.5C11 7.94771 10.5523 7.5 10 7.5C9.44772 7.5 9 7.94771 9 8.5C9 9.05228 9.44772 9.5 10 9.5ZM11 11C11 11.5523 10.5523 12 10 12C9.44772 12 9 11.5523 9 11C9 10.4477 9.44772 10 10 10C10.5523 10 11 10.4477 11 11ZM10 14.5C10.5523 14.5 11 14.0523 11 13.5C11 12.9477 10.5523 12.5 10 12.5C9.44772 12.5 9 12.9477 9 13.5C9 14.0523 9.44772 14.5 10 14.5Z" fill="#333B47"/>
<path fill-rule="evenodd" clip-rule="evenodd" d="M12.5 8.5C12.5 8.22386 12.7239 8 13 8L13.5 8C13.7761 8 14 8.22386 14 8.5C14 8.77614 13.7761 9 13.5 9L13 9C12.7239 9 12.5 8.77614 12.5 8.5Z" fill="#333B47"/>
<path fill-rule="evenodd" clip-rule="evenodd" d="M6 8.5C6 8.22386 6.22386 8 6.5 8L7 8C7.27614 8 7.5 8.22386 7.5 8.5C7.5 8.77614 7.27614 9 7 9L6.5 9C6.22386 9 6 8.77614 6 8.5Z" fill="#333B47"/>
<path fill-rule="evenodd" clip-rule="evenodd" d="M10 6C9.72386 6 9.5 5.77614 9.5 5.5L9.5 5C9.5 4.72386 9.72386 4.5 10 4.5C10.2761 4.5 10.5 4.72386 10.5 5L10.5 5.5C10.5 5.77614 10.2761 6 10 6Z" fill="#333B47"/>
<path fill-rule="evenodd" clip-rule="evenodd" d="M11.7678 6.73225C11.5725 6.53698 11.5725 6.2204 11.7678 6.02514L12.1213 5.67159C12.3166 5.47632 12.6332 5.47632 12.8284 5.67159C13.0237 5.86685 13.0237 6.18343 12.8284 6.37869L12.4749 6.73225C12.2796 6.92751 11.963 6.92751 11.7678 6.73225Z" fill="#333B47"/>
<path fill-rule="evenodd" clip-rule="evenodd" d="M7.17157 5.67158C7.36684 5.47631 7.68342 5.47631 7.87868 5.67158L8.23223 6.02513C8.4275 6.22039 8.4275 6.53697 8.23223 6.73224C8.03697 6.9275 7.72039 6.9275 7.52513 6.73224L7.17157 6.37868C6.97631 6.18342 6.97631 5.86684 7.17157 5.67158Z" fill="#333B47"/>
</svg>
