<svg width="20" height="20" viewBox="0 0 20 20" fill="none" xmlns="http://www.w3.org/2000/svg">
<circle cx="10" cy="10" r="8.5" fill="#FFBD09" stroke="#333B47"/>
<path d="M12 13V7.5C12.2652 7.5 12.5196 7.60536 12.7071 7.79289C12.8946 7.98043 13 8.23478 13 8.5V12C13 12.2652 12.8946 12.5196 12.7071 12.7071C12.5196 12.8946 12.2652 13 12 13ZM10 5.5H6C5.73478 5.5 5.48043 5.60536 5.29289 5.79289C5.10536 5.98043 5 6.23478 5 6.5V13.5C5 13.7652 5.10536 14.0196 5.29289 14.2071C5.48043 14.3946 5.73478 14.5 6 14.5H10C10.2652 14.5 10.5196 14.3946 10.7071 14.2071C10.8946 14.0196 11 13.7652 11 13.5V6.5C11 6.23478 10.8946 5.98043 10.7071 5.79289C10.5196 5.60536 10.2652 5.5 10 5.5ZM7.75 13.5C7.40388 13.5 7.06554 13.3974 6.77775 13.2051C6.48997 13.0128 6.26566 12.7395 6.13321 12.4197C6.00076 12.0999 5.9661 11.7481 6.03363 11.4086C6.10115 11.0691 6.26782 10.7573 6.51256 10.5126C6.7573 10.2678 7.06912 10.1011 7.40859 10.0336C7.74806 9.9661 8.09992 10.0008 8.4197 10.1332C8.73947 10.2657 9.01278 10.49 9.20507 10.7778C9.39736 11.0655 9.5 11.4039 9.5 11.75C9.5 12.2141 9.31562 12.6592 8.98744 12.9874C8.65925 13.3156 8.21413 13.5 7.75 13.5ZM9 8.5C8.80222 8.5 8.60888 8.44135 8.44443 8.33147C8.27998 8.22159 8.15181 8.06541 8.07612 7.88268C8.00043 7.69996 7.98063 7.49889 8.01921 7.30491C8.0578 7.11093 8.15304 6.93275 8.29289 6.79289C8.43275 6.65304 8.61093 6.5578 8.80491 6.51921C8.99889 6.48063 9.19996 6.50043 9.38268 6.57612C9.56541 6.65181 9.72159 6.77998 9.83147 6.94443C9.94135 7.10888 10 7.30222 10 7.5C10 7.76522 9.89464 8.01957 9.70711 8.20711C9.51957 8.39464 9.26522 8.5 9 8.5ZM15 12C14.7348 12 14.4804 11.8946 14.2929 11.7071C14.1054 11.5196 14 11.2652 14 11V9.5C14 9.23478 14.1054 8.98043 14.2929 8.79289C14.4804 8.60536 14.7348 8.5 15 8.5V12ZM7.75 11C7.89834 11 8.04334 11.044 8.16668 11.1264C8.29001 11.2088 8.38614 11.3259 8.44291 11.463C8.49967 11.6 8.51453 11.7508 8.48559 11.8963C8.45665 12.0418 8.38522 12.1754 8.28033 12.2803C8.17544 12.3852 8.0418 12.4566 7.89632 12.4856C7.75083 12.5145 7.60003 12.4997 7.46299 12.4429C7.32594 12.3861 7.20881 12.29 7.1264 12.1667C7.04399 12.0433 7 11.8983 7 11.75C7 11.5511 7.07902 11.3603 7.21967 11.2197C7.36032 11.079 7.55109 11 7.75 11Z" fill="#333B47"/>
</svg>
