<svg width="32" height="34" viewBox="0 0 32 34" fill="none" xmlns="http://www.w3.org/2000/svg">
<path d="M3.3402 11.2976L11.5421 3.29959C14.0027 0.900134 17.9973 0.900136 20.4579 3.2996L28.6598 11.2976C31.1134 13.6902 31.1134 17.564 28.6598 19.9566L16 32.3016L3.3402 19.9566C0.8866 17.564 0.886601 13.6902 3.3402 11.2976Z" fill="#6A7483" stroke="#E6E6E6"/>
<path fill-rule="evenodd" clip-rule="evenodd" d="M16 23C19.866 23 23 19.866 23 16C23 12.134 19.866 9 16 9C12.134 9 9 12.134 9 16C9 19.866 12.134 23 16 23ZM15 16.7321V11H17V15.5774L19.8971 17.25L18.8971 18.9821L15 16.7321Z" fill="white"/>
</svg>
