<svg width="32" height="34" viewBox="0 0 32 34" fill="none" xmlns="http://www.w3.org/2000/svg">
<path d="M3.3402 11.2976L11.5421 3.29959C14.0027 0.900134 17.9973 0.900136 20.4579 3.2996L28.6598 11.2976C31.1134 13.6902 31.1134 17.564 28.6598 19.9566L16 32.3016L3.3402 19.9566C0.8866 17.564 0.886601 13.6902 3.3402 11.2976Z" fill="#6A7483" stroke="#E6E6E6"/>
<path d="M20.2486 13H18.4486L16.9486 10.5H12.6486L11.1486 13H13.8486V13.3C13.3486 13.5 12.8486 13.9 12.5486 14.3C12.3486 14.1 12.1486 14 11.8486 14C11.2486 14 10.8486 14.4 10.8486 15C10.8486 15.4 11.1486 15.8 11.5486 15.9L10.2486 18H9.84863C9.24863 18 8.84863 17.5 8.84863 16.9V14.6C8.84863 14.2 8.94863 13.9 9.14863 13.6L11.2486 10C11.6486 9.4 12.2486 9 12.9486 9H16.6486C17.3486 9 18.0486 9.4 18.3486 10L20.2486 13ZM22.8486 19.6V22C22.8486 22.6 22.4486 23.1 21.8486 23.1H19.8486L18.8486 21.6H14.8486L13.8486 23H11.8486C11.2486 23 10.8486 22.5 10.8486 21.9V19.5C10.8486 19.1 10.9486 18.8 11.1486 18.5L13.2486 15C13.6486 14.4 14.2486 14 14.9486 14H18.6486C19.3486 14 20.0486 14.4 20.3486 15L22.4486 18.6C22.7486 18.8 22.8486 19.2 22.8486 19.6ZM14.8486 20C14.8486 19.4 14.4486 19 13.8486 19C13.2486 19 12.8486 19.4 12.8486 20C12.8486 20.6 13.2486 21 13.8486 21C14.4486 21 14.8486 20.6 14.8486 20ZM20.5486 18L19.0486 15.5H14.6486L13.1486 18H20.5486ZM20.8486 20C20.8486 19.4 20.4486 19 19.8486 19C19.2486 19 18.8486 19.4 18.8486 20C18.8486 20.6 19.2486 21 19.8486 21C20.4486 21 20.8486 20.6 20.8486 20Z" fill="white"/>
</svg>
