<svg width="30" height="30" viewBox="0 0 30 30" fill="none" xmlns="http://www.w3.org/2000/svg">
<path d="M14.9996 1L29 15.0004L15.0004 29L1 14.9996L14.9996 1Z" fill="#2C313A"/>
<path d="M27.5 15L15 27.5L2.5 15L15 2.5L27.5 15Z" fill="#5D583C"/>
<path d="M14.9999 8C12.2399 8 10.0559 10.24 10.0099 13C9.97989 14.813 11.0629 16.583 12.3299 18.641C12.8199 17.66 13.8299 17 14.9999 17C16.1889 17 17.2099 17.68 17.6889 18.68C18.0459 17.961 20.0079 15.23 19.9899 13C19.9649 10.24 17.7599 8 14.9999 8ZM12.9999 15.5C12.1699 15.5 11.4999 14.83 11.4999 14C11.4999 13.17 12.1699 12.5 12.9999 12.5C13.8299 12.5 14.4999 13.17 14.4999 14C14.4999 14.83 13.8299 15.5 12.9999 15.5ZM16.9999 15.5C16.1699 15.5 15.4999 14.83 15.4999 14C15.4999 13.17 16.1699 12.5 16.9999 12.5C17.8299 12.5 18.4999 13.17 18.4999 14C18.4999 14.83 17.8299 15.5 16.9999 15.5ZM14.9999 18C13.8959 18 13.0099 18.896 13.0099 20C13.0099 21.104 13.8959 22 14.9999 22C16.1039 22 16.9999 21.104 16.9999 20C16.9999 18.896 16.1039 18 14.9999 18ZM15.9999 20C15.9999 20.553 15.5529 21 14.9999 21C14.4469 21 13.9999 20.553 13.9999 20C13.9999 19.447 14.4469 19 14.9999 19C15.5529 19 15.9999 19.447 15.9999 20Z" fill="#372F2F"/>
</svg>
