<svg width="30" height="30" viewBox="0 0 30 30" fill="none" xmlns="http://www.w3.org/2000/svg">
<path d="M14.9996 1L29 15.0004L15.0004 29L1 14.9996L14.9996 1Z" fill="#434656"/>
<path d="M27.5 15L15 27.5L2.5 15L15 2.5L27.5 15Z" fill="#857207"/>
<path d="M14.9998 17C13.8948 17 13.0098 16.105 13.0098 15C13.0098 13.895 13.8948 13 14.9998 13C16.1048 13 16.9998 13.895 16.9998 15C16.9998 16.105 16.1048 17 14.9998 17ZM18.6698 9L16.9998 12C17.9898 12.61 18.4598 13.68 18.4598 14.93H21.9598C21.9598 12.43 20.6408 10.239 18.6698 9ZM16.6298 18C15.3908 18.656 14.2498 18.438 13.4008 18.059L11.6108 21.112C13.7808 22.313 16.3398 22.169 18.3908 21.1L16.6298 18ZM11.2898 9C9.31977 10.239 8.00977 12.43 8.00977 14.93H11.4598C11.4598 13.67 11.9998 12.61 12.9998 12L11.2898 9Z" fill="#333333"/>
</svg>
