<svg width="30" height="30" viewBox="0 0 30 30" fill="none" xmlns="http://www.w3.org/2000/svg">
<path d="M14.9996 1L29 15.0004L15.0004 29L1 14.9996L14.9996 1Z" fill="#2C313A"/>
<path d="M27.5 15L15 27.5L2.5 15L15 2.5L27.5 15Z" fill="#624B35"/>
<path fill-rule="evenodd" clip-rule="evenodd" d="M10.4184 17.5207C10.2169 16.9363 9.66461 16.5145 9.01062 16.5098C8.18052 16.5038 7.506 17.172 7.50001 18.0002C7.49905 18.1328 7.55083 18.2604 7.64394 18.3548C7.73705 18.4493 7.86387 18.5029 7.9965 18.5038L9.58165 18.5149C9.78334 19.0992 10.3363 19.5191 10.9894 19.5238C11.6429 19.5285 12.2017 19.1165 12.4115 18.5345L13.5817 18.5421C13.7835 19.1263 14.3364 19.5461 14.9894 19.5508C15.643 19.5555 16.2015 19.143 16.4113 18.5615L17.5862 18.5691C17.7913 19.1464 18.3403 19.5601 18.9894 19.5648C19.6432 19.5695 20.2028 19.157 20.4121 18.5747L21.9965 18.5858C22.2726 18.5877 22.498 18.3655 22.5 18.0894C22.506 17.2609 21.8414 16.5838 21.0106 16.5778C20.3552 16.5731 19.7967 16.9887 19.5878 17.5715L18.4186 17.5621C18.2175 16.9776 17.6658 16.5555 17.0106 16.5508C16.3509 16.546 15.7895 16.9671 15.5838 17.5559L14.4184 17.5477C14.2169 16.9633 13.6646 16.5415 13.0106 16.5368C12.3557 16.5321 11.7982 16.9474 11.5887 17.5289L10.4184 17.5207ZM11.5 21.0042C11.506 20.174 12.1825 19.5108 13.0106 19.5168C13.6636 19.5215 14.2171 19.9402 14.4186 20.5257L15.5838 20.5339C15.7897 19.9451 16.3518 19.526 17.0106 19.5308C17.8388 19.5368 18.5038 20.2084 18.5 21.0363C18.5 21.0423 18.5 21.0484 18.5 21.0544C18.498 21.3305 18.2725 21.5528 17.9964 21.5508C17.9558 21.5505 17.9163 21.5454 17.8786 21.536L16.4162 21.5257C16.2105 22.1145 15.6491 22.5356 14.9894 22.5308C14.3353 22.5261 13.783 22.1042 13.5815 21.5197L11.9962 21.5078C11.7202 21.5057 11.498 21.2803 11.5 21.0042Z" fill="#372F2F"/>
<path d="M15.92 11.9996L17.783 10.1366C17.976 9.94256 17.976 9.62356 17.783 9.42956L17.57 9.21656C17.376 9.02256 17.056 9.02256 16.863 9.21656L15 11.0796L13.105 9.18456C12.911 8.99056 12.592 8.99056 12.398 9.18456L12.185 9.39756C11.991 9.59156 11.991 9.91056 12.185 10.1046L14.08 11.9996L12.166 13.9136C11.972 14.1076 11.972 14.4266 12.166 14.6206L12.379 14.8336C12.573 15.0276 12.892 15.0276 13.086 14.8336L15 12.9196L16.898 14.8176C17.09 15.0116 17.411 15.0116 17.605 14.8176L17.818 14.6046C18.011 14.4106 18.011 14.0916 17.818 13.8976L15.92 11.9996Z" fill="#372F2F"/>
</svg>
