<svg width="30" height="30" viewBox="0 0 30 30" fill="none" xmlns="http://www.w3.org/2000/svg">
<circle cx="15" cy="15" r="13" fill="#6E3434"/>
<circle cx="15" cy="15" r="10" fill="#5F626D"/>
<path fill-rule="evenodd" clip-rule="evenodd" d="M20.678 18.9998L24.4129 22.7346L22.7356 24.4119L17.3235 18.9998H20.678ZM11.678 9.99976L7.09033 5.41211L5.41309 7.08935L8.3235 9.99976H11.678Z" fill="#6E3434"/>
<path d="M8.51584 16.9398C8.51584 17.1216 8.57283 17.2125 8.68681 17.2125H10.6651C10.8605 17.2125 10.9745 17.0913 11.007 16.8489L11.0559 16.3943L11.6176 16.5458L11.5199 17.1822C11.4548 17.5862 11.2594 17.7883 10.9338 17.7883H8.54027C8.19834 17.7883 8.02738 17.566 8.02738 17.1216V14.1216H10.4941V15.9398C10.4941 16.263 10.3639 16.4246 10.1034 16.4246H9.5172L9.46836 15.8489H9.90798C9.9731 15.8489 10.0057 15.8085 10.0057 15.7277V14.6974H8.51584V16.9398ZM9.44393 12.9398H11.3978V13.5155H7.39237V15.0307C7.39237 16.3034 7.05859 17.2529 6.39101 17.8792L6.02466 17.3337C6.61082 16.8893 6.9039 16.0913 6.9039 14.9398V13.5155C6.70852 13.7378 6.47243 13.9297 6.19563 14.0913L6.00024 13.4852C6.79807 13.0206 7.35167 12.2125 7.66103 11.061L8.19834 11.1519C8.26347 11.2125 8.23905 11.2832 8.12507 11.364L8.02738 11.5761H9.81028L9.90798 11.4549L10.2743 11.7883C10.3395 11.8893 10.3069 11.9499 10.1766 11.9701L9.44393 12.9398ZM7.83199 12.1519C7.70173 12.4145 7.54705 12.6772 7.36795 12.9398H8.88219L9.41951 12.1519H7.83199Z" fill="#372F2F"/>
<path d="M13.9134 12.8792C14.6624 12.5357 15.2078 11.9196 15.5498 11.0307L16.1359 11.0913C16.1848 11.1317 16.1685 11.1822 16.0871 11.2428C16.5104 11.8691 17.1291 12.3438 17.9433 12.6671L17.7723 13.3337C16.8605 12.9499 16.2092 12.3943 15.8184 11.6671C15.5091 12.4347 14.9473 13.0509 14.1332 13.5155L13.9134 12.8792ZM13.6692 15.5761C13.6366 14.9499 13.4819 14.364 13.2051 13.8186L13.5471 11.9095H12.9609V17.9701H12.4724V11.3337H13.718L13.8157 11.2428L14.1576 11.6671L14.0599 11.7883L13.6447 13.758C13.9867 14.3842 14.1658 14.9903 14.1821 15.5761C14.1983 16.3842 14.0111 16.7883 13.6203 16.7883H13.2051L13.1563 16.1216H13.4494C13.6122 16.1216 13.6855 15.9398 13.6692 15.5761ZM15.9894 16.3337C15.6963 17.2226 14.9962 17.7782 13.889 18.0004L13.7424 17.3337C14.8008 17.1317 15.4358 16.6368 15.6475 15.8489H14.4751V14.1216H15.7207V13.6065H14.9392V13.0307H16.9907V13.6065H16.1359V14.1216H17.4059V15.8489H16.2336C16.5267 16.4549 17.1047 16.9095 17.9677 17.2125L17.7967 17.8792C16.9989 17.6368 16.3964 17.1216 15.9894 16.3337ZM16.1359 15.364H16.9907V14.6065H16.1359V15.364ZM14.8903 15.364H15.7207V14.6065H14.8903V15.364Z" fill="#372F2F"/>
<path d="M19.2377 12.5458H19.6285V11.0004H20.0925C20.2228 11.0206 20.2309 11.0812 20.1169 11.1822V12.5458H20.8008V13.1216H20.1169V14.7883L20.7519 14.4852L20.8741 15.0004L20.1169 15.3943V18.0004H19.6285V15.6065L18.8713 15.9095C18.8551 16.0509 18.8144 16.0812 18.7492 16.0004L18.5783 15.3337L19.6285 14.9701V13.1216H19.2133C19.1807 13.5054 19.1156 13.8792 19.0179 14.2428L18.5538 14.0307C18.7492 13.3236 18.8469 12.5458 18.8469 11.6974L19.3354 11.7883C19.3842 11.8489 19.3679 11.9095 19.2865 11.9701L19.2377 12.5458ZM24.0002 12.4852L23.9758 16.2125C23.9758 17.2832 23.7316 17.8186 23.2431 17.8186H22.5348L22.4371 17.1519H23.0477C23.3408 17.1923 23.4874 16.8792 23.4874 16.2125L23.5118 13.061H23.2431C23.2594 14.8388 22.5511 16.4751 21.1183 17.9701L20.8008 17.4246C22.0057 16.3135 22.6651 14.859 22.7791 13.061H22.3883C22.3232 14.2933 21.8266 15.3842 20.8985 16.3337L20.5566 15.8186C21.3707 15.0307 21.8266 14.1115 21.9243 13.061H21.5335C21.3544 13.6065 21.1264 14.0711 20.8496 14.4549L20.4344 14.0913C21.0043 13.2226 21.3544 12.2226 21.4846 11.0913L21.9975 11.2125C22.0627 11.2933 22.0382 11.3438 21.9243 11.364C21.8754 11.7075 21.8021 12.0812 21.7044 12.4852H24.0002Z" fill="#372F2F"/>
<path fill-rule="evenodd" clip-rule="evenodd" d="M9.90798 15.8489C9.9731 15.8489 10.0057 15.8085 10.0057 15.7277V14.6974H8.51584V16.9398C8.51584 17.1216 8.57283 17.2125 8.68681 17.2125H10.6651C10.8605 17.2125 10.9745 17.0913 11.007 16.8489L11.0559 16.3943L11.6176 16.5458L11.5199 17.1822C11.4548 17.5862 11.2594 17.7883 10.9338 17.7883H8.54027C8.19834 17.7883 8.02738 17.566 8.02738 17.1216V14.1216H10.4941V15.9398C10.4941 16.263 10.3639 16.4246 10.1034 16.4246H9.5172L9.46836 15.8489H9.90798ZM8.61584 14.7974V16.9398C8.61584 17.0235 8.62954 17.0693 8.64331 17.0912C8.65219 17.1054 8.66167 17.1125 8.68681 17.1125H10.6651C10.7404 17.1125 10.7895 17.0901 10.8243 17.0531C10.8615 17.0135 10.8929 16.9459 10.9077 16.8368L10.9689 16.2673L11.73 16.4726L11.6188 17.1974C11.5844 17.4108 11.5135 17.5853 11.3964 17.7063C11.2769 17.8299 11.119 17.8883 10.9338 17.8883H8.54027C8.34585 17.8883 8.18494 17.8237 8.07634 17.6826C7.97156 17.5464 7.92738 17.3538 7.92738 17.1216V14.0216H10.5941V15.9398C10.5941 16.1122 10.5598 16.2601 10.4743 16.3662C10.3855 16.4764 10.2554 16.5246 10.1034 16.5246H9.42533L9.35951 15.7489H9.90422C9.90502 15.7439 9.90567 15.737 9.90567 15.7277V14.7974H8.61584ZM10.2743 11.7883C10.3395 11.8893 10.3069 11.9499 10.1766 11.9701L9.44393 12.9398H11.3978V13.5155H7.39237V15.0307C7.39237 16.2563 7.08286 17.1821 6.46383 17.8082C6.44002 17.8323 6.41575 17.856 6.39101 17.8792L6.02466 17.3337C6.61082 16.8893 6.9039 16.0913 6.9039 14.9398V13.5155C6.87168 13.5522 6.83835 13.588 6.8039 13.623C6.65199 13.7774 6.47854 13.9158 6.28354 14.0381C6.25471 14.0562 6.2254 14.0739 6.19563 14.0913L6.00024 13.4852C6.79807 13.0206 7.35167 12.2125 7.66103 11.061L8.19834 11.1519C8.26347 11.2125 8.23905 11.2832 8.12507 11.364L8.02738 11.5761H9.81028L9.90798 11.4549L10.2743 11.7883ZM9.76244 11.4761L9.89674 11.3095L10.3513 11.7231L10.3584 11.7341C10.3956 11.7918 10.4304 11.8758 10.3868 11.9568C10.3543 12.0174 10.2927 12.0462 10.2335 12.0607L9.64483 12.8398H11.4978V13.6155H7.49237V15.0307C7.49237 16.32 7.15402 17.3005 6.45943 17.9521L6.37361 18.0326L5.889 17.3111L5.96425 17.254C6.51398 16.8372 6.8039 16.078 6.8039 14.9398V13.763C6.63972 13.9183 6.45365 14.0564 6.24605 14.1777L6.13862 14.2404L5.88037 13.4393L5.94991 13.3988C6.71886 12.951 7.25985 12.1688 7.56445 11.0351L7.58805 10.9472L8.24455 11.0583L8.26646 11.0787C8.29186 11.1023 8.31435 11.1323 8.32591 11.1696C8.33787 11.2082 8.3358 11.2471 8.32339 11.283C8.3034 11.3409 8.25752 11.3889 8.20515 11.4292L8.18353 11.4761H9.76244ZM13.9342 12.8695C13.9273 12.8728 13.9204 12.876 13.9134 12.8792L14.1332 13.5155C14.1629 13.4986 14.1922 13.4815 14.2212 13.4641C14.4477 13.3288 14.6536 13.1811 14.8392 13.0213C14.8732 12.9919 14.9065 12.9622 14.9392 12.9321L14.9407 12.9307C15.3001 12.5985 15.5761 12.2163 15.7688 11.784C15.786 11.7454 15.8026 11.7064 15.8184 11.6671C15.8385 11.7044 15.8592 11.7413 15.8807 11.7778C16.1483 12.2326 16.523 12.6169 17.0047 12.9307C17.033 12.9491 17.0617 12.9673 17.0907 12.9853C17.2725 13.0976 17.4687 13.2004 17.6793 13.2936C17.71 13.3072 17.741 13.3206 17.7723 13.3337L17.9433 12.6671C17.1291 12.3438 16.5104 11.8691 16.0871 11.2428C16.1685 11.1822 16.1848 11.1317 16.1359 11.0913L15.5498 11.0307C15.211 11.9113 14.6725 12.5243 13.9342 12.8695ZM16.2184 11.2566C16.2344 11.2367 16.2476 11.2146 16.2555 11.1902C16.2657 11.1587 16.2667 11.124 16.2545 11.0898C16.2428 11.057 16.2215 11.0323 16.1997 11.0142L16.1763 10.9949L15.4839 10.9234L15.4564 10.9948C15.1361 11.8275 14.6367 12.4078 13.9603 12.7459L14.1528 11.8324L14.2861 11.6671L13.8262 11.0965L13.6787 11.2337H12.3724V18.0701H13.0609V16.1882L13.1122 16.8883H13.6203C13.7362 16.8883 13.8417 16.858 13.9325 16.7945C14.0226 16.7315 14.0923 16.6402 14.1446 16.5273C14.2479 16.3044 14.2903 15.9829 14.282 15.5741C14.2655 14.9797 14.0866 14.3684 13.7502 13.7426L13.885 13.1032L14.0781 13.6622L14.1828 13.6024C14.4227 13.4655 14.6415 13.3154 14.8392 13.1521V13.7065H15.6207V14.0216H14.3751V15.9489H15.5123C15.282 16.6159 14.6986 17.0494 13.7237 17.2355L13.6227 17.2548L13.8124 18.1178L13.9087 18.0984C14.956 17.8882 15.6631 17.3814 16.0067 16.5718C16.4218 17.2748 17.0093 17.7444 17.7676 17.9749L17.8676 18.0052L18.0873 17.1485L18.0008 17.1182C17.2256 16.8459 16.6975 16.4539 16.4004 15.9489H17.5059V14.0216H16.2359V13.7065H17.0907V13.1023C17.2891 13.2212 17.5034 13.329 17.7335 13.4259L17.8404 13.4709L18.062 12.6066L17.9802 12.5741C17.2125 12.2693 16.6271 11.8295 16.2184 11.2566ZM16.9907 13.0307H14.9392V13.6065H15.7207V14.1216H14.4751V15.8489H15.6475C15.6384 15.8828 15.6285 15.9161 15.6178 15.9489C15.3882 16.6549 14.7957 17.1099 13.8405 17.3139C13.8082 17.3208 13.7755 17.3274 13.7424 17.3337L13.889 18.0004C14.9423 17.789 15.6273 17.2758 15.9438 16.461C15.9599 16.4193 15.9751 16.3769 15.9894 16.3337C16.0103 16.3742 16.0317 16.414 16.0537 16.453C16.4417 17.1432 16.9909 17.6084 17.7013 17.8486C17.7328 17.8592 17.7646 17.8694 17.7967 17.8792L17.9677 17.2125C17.1529 16.9264 16.5921 16.5052 16.2853 15.9489C16.2672 15.916 16.25 15.8827 16.2336 15.8489H17.4059V14.1216H16.1359V13.6065H16.9907V13.0307ZM15.0859 12.9307H16.8263C16.4124 12.6397 16.08 12.2926 15.8308 11.8888C15.6486 12.2768 15.4 12.6241 15.0859 12.9307ZM14.0599 11.7883L14.1576 11.6671L13.8157 11.2428L13.718 11.3337H12.4724V17.9701H12.9609V11.9095H13.5471L13.2051 13.8186C13.4819 14.364 13.6366 14.9499 13.6692 15.5761C13.6855 15.9398 13.6122 16.1216 13.4494 16.1216H13.1563L13.2051 16.7883H13.6203C14.0111 16.7883 14.1983 16.3842 14.1821 15.5761C14.1658 14.9903 13.9867 14.3842 13.6447 13.758L14.0599 11.7883ZM13.5693 15.581C13.5374 14.9684 13.3862 14.3964 13.116 13.8638L13.1008 13.8339L13.4276 12.0095H13.0609V16.0216H13.4494C13.4702 16.0216 13.4833 16.0163 13.4937 16.0083C13.5053 15.9993 13.52 15.9819 13.5337 15.9479C13.5621 15.8773 13.5772 15.7585 13.5693 15.581ZM19.3354 11.7883C19.3842 11.8489 19.3679 11.9095 19.2865 11.9701L19.2377 12.5458H19.6285V11.0004H20.0925C20.2228 11.0206 20.2309 11.0812 20.1169 11.1822V12.5458H20.8008V13.1216H20.1169V14.7883L20.7519 14.4852L20.8741 15.0004L20.1169 15.3943V18.0004H19.6285V15.6065L18.8713 15.9095C18.8551 16.0509 18.8144 16.0812 18.7492 16.0004L18.5783 15.3337L19.6285 14.9701V13.1216H19.2133C19.1836 13.4709 19.127 13.8119 19.0434 14.1445C19.0352 14.1774 19.0267 14.2101 19.0179 14.2428L18.5538 14.0307C18.7414 13.3519 18.8389 12.608 18.8464 11.799C18.8468 11.7652 18.8469 11.7314 18.8469 11.6974L19.3354 11.7883ZM19.3045 13.2216C19.2693 13.5792 19.2059 13.9283 19.1145 14.2688L19.0838 14.3829L18.4347 14.0862L18.4575 14.0041C18.6501 13.3069 18.7469 12.5382 18.7469 11.6974V11.577L19.39 11.6967L19.4132 11.7255C19.4523 11.774 19.4748 11.8365 19.4564 11.9051C19.4441 11.951 19.4161 11.9889 19.3827 12.0201L19.3465 12.4458H19.5285V10.9004H20.1002L20.1078 10.9016C20.1458 10.9075 20.1849 10.9176 20.2177 10.9368C20.2527 10.9572 20.2881 10.993 20.2954 11.0477C20.3021 11.0971 20.2823 11.1395 20.2632 11.1688C20.2506 11.1881 20.2348 11.2068 20.2169 11.2251V12.4458H20.9008V12.9955C21.1444 12.407 21.306 11.7686 21.3853 11.0799L21.3982 10.9681L22.0539 11.1231L22.0754 11.1498C22.1111 11.1941 22.158 11.272 22.1181 11.3545C22.0994 11.3931 22.0678 11.4172 22.0384 11.4322C22.0305 11.4363 22.0222 11.4399 22.0138 11.4432C21.9699 11.7365 21.909 12.0505 21.831 12.3852H24.1009L24.0758 16.2125C24.0758 16.7522 24.0147 17.1712 23.8836 17.4586C23.8175 17.6035 23.7316 17.7193 23.6227 17.7989C23.5126 17.8793 23.3847 17.9186 23.2431 17.9186H22.4484L22.3214 17.0519H23.0615C23.1152 17.0593 23.155 17.051 23.1873 17.0309C23.2211 17.01 23.2558 16.9715 23.2869 16.905C23.3505 16.769 23.3874 16.5423 23.3874 16.2125L23.411 13.161H23.3433C23.3325 14.9301 22.6112 16.557 21.1905 18.0393L21.0986 18.1351L20.674 17.4055L20.733 17.3511C21.8933 16.2811 22.5405 14.8869 22.6719 13.161H22.4823C22.3958 14.3807 21.8899 15.4625 20.97 16.4036L20.8835 16.4921L20.4272 15.8046L20.487 15.7467C21.2568 15.0017 21.6972 14.1405 21.8131 13.161H21.6055C21.4274 13.6848 21.2028 14.1361 20.9307 14.5134L20.8785 14.5858L20.9893 15.0531L20.2169 15.455V18.1004H19.5285V15.7542L18.9613 15.9812C18.958 15.9972 18.9541 16.0122 18.9495 16.0262C18.9403 16.0538 18.9234 16.0923 18.8883 16.1185C18.8688 16.133 18.8447 16.1428 18.8176 16.1443C18.7913 16.1457 18.7684 16.139 18.7504 16.1304C18.717 16.1145 18.6909 16.0873 18.6714 16.0631L18.6577 16.0462L18.4585 15.2694L19.5285 14.8989V13.2216H19.3045ZM20.9074 14.3726C20.8884 14.4005 20.8691 14.4279 20.8496 14.4549L20.4344 14.0913C20.9875 13.2483 21.3335 12.2816 21.4725 11.1912C21.4768 11.158 21.4808 11.1247 21.4846 11.0913L21.9975 11.2125C22.0627 11.2933 22.0382 11.3438 21.9243 11.364C21.8795 11.679 21.8141 12.0194 21.7283 12.3852C21.7205 12.4184 21.7126 12.4517 21.7044 12.4852H24.0002L23.9758 16.2125C23.9758 17.2832 23.7316 17.8186 23.2431 17.8186H22.5348L22.4371 17.1519H23.0477C23.3408 17.1923 23.4874 16.8792 23.4874 16.2125L23.5118 13.061H23.2431C23.2434 13.0944 23.2435 13.1277 23.2433 13.161C23.2327 14.8704 22.5483 16.4482 21.19 17.8945C21.1663 17.9197 21.1424 17.9449 21.1183 17.9701L20.8008 17.4246C21.9833 16.3342 22.6404 14.913 22.7721 13.161C22.7746 13.1278 22.777 13.0944 22.7791 13.061H22.3883C22.3249 14.2615 21.8519 15.3278 20.9695 16.2599C20.9461 16.2846 20.9224 16.3092 20.8985 16.3337L20.5566 15.8186C21.3447 15.0558 21.7972 14.1699 21.9138 13.161C21.9177 13.1278 21.9211 13.0945 21.9243 13.061H21.5335C21.367 13.568 21.1583 14.0052 20.9074 14.3726ZM20.6574 14.4195L20.3031 14.1092L20.3508 14.0364C20.5211 13.7769 20.6715 13.5053 20.802 13.2216H20.2169V14.6297L20.6574 14.4195ZM7.43497 12.8398C7.58592 12.6105 7.71827 12.3812 7.83199 12.1519H9.41951L8.88219 12.9398H7.36795C7.39068 12.9065 7.41302 12.8731 7.43497 12.8398ZM7.55434 12.8398C7.68068 12.6441 7.79381 12.4481 7.89366 12.2519H9.23027L8.82935 12.8398H7.55434ZM16.9907 15.364H16.1359V14.6065H16.9907V15.364ZM16.8907 14.7065H16.2359V15.264H16.8907V14.7065ZM15.7207 15.364H14.8903V14.6065H15.7207V15.364ZM15.6207 14.7065H14.9903V15.264H15.6207V14.7065Z" fill="#372F2F"/>
</svg>
