<svg width="30" height="30" viewBox="0 0 30 30" fill="none" xmlns="http://www.w3.org/2000/svg">
<path d="M15 1L1 15L15 29L29 15L15 1Z" fill="#434656"/>
<path d="M27.5 15L14.9994 27.5L2.5 15L14.9994 2.5L27.5 15Z" fill="#9C9C16"/>
<path d="M25 19H6H5V27H25V19Z" fill="#434656"/>
<path d="M24 20H6V26H24V20Z" fill="#9C9C16"/>
<path d="M24 11L28 14.997L24 18.999" fill="#434656"/>
<path d="M6 18.999L2 14.997L6 11" fill="#434656"/>
<path fill-rule="evenodd" clip-rule="evenodd" d="M8 25H8.84971V21H8V25ZM11.2254 25L9.78613 22.8035L11.1214 21H10.2139L8.88439 22.8671L10.2312 25H11.2254ZM12.8878 21C13.408 21 13.8107 21.1079 14.0958 21.3237C14.3849 21.5395 14.5294 21.8613 14.5294 22.289C14.5294 22.736 14.3868 23.0732 14.1016 23.3006C13.8165 23.5241 13.435 23.6358 12.9571 23.6358H12.5005V25H11.6508V21H12.8878ZM12.8878 23.0116C13.1344 23.0116 13.3232 22.9557 13.4542 22.8439C13.5852 22.7322 13.6508 22.5472 13.6508 22.289C13.6508 21.8382 13.3926 21.6127 12.8762 21.6127H12.5005V23.0116H12.8878ZM16.1709 23.4335H16.6044L17.4599 25H18.4252L17.3905 23.2775C17.6603 23.158 17.8587 23.0135 17.9859 22.8439C18.1169 22.6744 18.1824 22.4586 18.1824 22.1965C18.1824 21.7958 18.0476 21.4971 17.7778 21.3006C17.5081 21.1002 17.1054 21 16.5697 21H15.3212V25H16.1709V23.4335ZM16.616 22.8324H16.1709V21.6069H16.5524C16.8106 21.6069 16.9994 21.6551 17.1189 21.7514C17.2422 21.8439 17.3038 21.9923 17.3038 22.1965C17.3038 22.4162 17.246 22.578 17.1304 22.6821C17.0148 22.7823 16.8433 22.8324 16.616 22.8324ZM19.6176 24.104H20.872L21.0974 25H21.9991L20.7737 21H19.739L18.5078 25H19.3922L19.6176 24.104ZM20.2419 21.6301L20.7101 23.474H19.7795L20.2419 21.6301Z" fill="#434656"/>
</svg>
